<?plantuml 1.2026.2?><svg xmlns="http://www.w3.org/2000/svg" xmlns:xlink="http://www.w3.org/1999/xlink" contentStyleType="text/css" data-diagram-type="ACTIVITY" height="1901px" preserveAspectRatio="none" style="width:975px;height:1901px;background:#FFFFFF;" version="1.1" viewBox="0 0 975 1901" width="975px" zoomAndPan="magnify"><defs/><g><ellipse cx="381.5366" cy="20" fill="#222222" rx="10" ry="10" style="stroke:#222222;stroke-width:1;"/><rect fill="#F1F1F1" height="34.1328" rx="12.5" ry="12.5" style="stroke:#181818;stroke-width:0.5;" width="200.2051" x="281.4341" y="50"/><text fill="#000000" font-family="sans-serif" font-size="12" lengthAdjust="spacing" textLength="180.2051" x="291.4341" y="71.6016">User clicks Enter on AgentPane</text><rect fill="#F1F1F1" height="34.1328" rx="12.5" ry="12.5" style="stroke:#181818;stroke-width:0.5;" width="139.332" x="311.8706" y="104.1328"/><text fill="#000000" font-family="sans-serif" font-size="12" lengthAdjust="spacing" textLength="119.332" x="321.8706" y="125.7344">Disable Enter button</text><rect fill="#F1F1F1" height="34.1328" rx="12.5" ry="12.5" style="stroke:#181818;stroke-width:0.5;" width="215.2695" x="273.9019" y="206.7432"/><text fill="#000000" font-family="sans-serif" font-size="12" lengthAdjust="spacing" textLength="195.2695" x="283.9019" y="228.3447">Toast: "Agent has no active pane"</text><rect fill="#F1F1F1" height="34.1328" rx="12.5" ry="12.5" style="stroke:#181818;stroke-width:0.5;" width="122.2754" x="320.3989" y="260.876"/><text fill="#000000" font-family="sans-serif" font-size="12" lengthAdjust="spacing" textLength="102.2754" x="330.3989" y="282.4775">Re-enable button</text><ellipse cx="381.5366" cy="326.0088" fill="none" rx="11" ry="11" style="stroke:#222222;stroke-width:1;"/><ellipse cx="381.5366" cy="326.0088" fill="#222222" rx="6" ry="6" style="stroke:#222222;stroke-width:1;"/><polygon fill="#F1F1F1" points="304.875,158.2656,458.1982,158.2656,470.1982,170.2656,458.1982,182.2656,304.875,182.2656,292.875,170.2656,304.875,158.2656" style="stroke:#181818;stroke-width:0.5;"/><text fill="#000000" font-family="sans-serif" font-size="11" lengthAdjust="spacing" textLength="13.5835" x="385.5366" y="192.9004">no</text><text fill="#000000" font-family="sans-serif" font-size="11" lengthAdjust="spacing" textLength="153.3232" x="304.875" y="174.4229">Agent has active tmux pane?</text><rect fill="#F1F1F1" height="48.2656" rx="12.5" ry="12.5" style="stroke:#181818;stroke-width:0.5;" width="185.1934" x="288.9399" y="379.0088"/><text fill="#000000" font-family="sans-serif" font-size="12" lengthAdjust="spacing" textLength="114.6445" x="298.9399" y="400.6104">Detect environment</text><text fill="#000000" font-family="sans-serif" font-size="12" lengthAdjust="spacing" textLength="165.1934" x="298.9399" y="414.7432">($TMUX + display-message)</text><rect fill="#F1F1F1" height="34.1328" rx="12.5" ry="12.5" style="stroke:#181818;stroke-width:0.5;" width="230.0176" x="266.5278" y="495.752"/><text fill="#000000" font-family="sans-serif" font-size="12" lengthAdjust="spacing" textLength="210.0176" x="276.5278" y="517.3535">Toast: "Nested tmux not supported"</text><rect fill="#F1F1F1" height="34.1328" rx="12.5" ry="12.5" style="stroke:#181818;stroke-width:0.5;" width="122.2754" x="320.3989" y="549.8848"/><text fill="#000000" font-family="sans-serif" font-size="12" lengthAdjust="spacing" textLength="102.2754" x="330.3989" y="571.4863">Re-enable button</text><ellipse cx="381.5366" cy="615.0176" fill="none" rx="11" ry="11" style="stroke:#222222;stroke-width:1;"/><ellipse cx="381.5366" cy="615.0176" fill="#222222" rx="6" ry="6" style="stroke:#222222;stroke-width:1;"/><polygon fill="#F1F1F1" points="344.9836,447.2744,418.0896,447.2744,430.0896,459.2744,418.0896,471.2744,344.9836,471.2744,332.9836,459.2744,344.9836,447.2744" style="stroke:#181818;stroke-width:0.5;"/><text fill="#000000" font-family="sans-serif" font-size="11" lengthAdjust="spacing" textLength="17.4829" x="385.5366" y="481.9092">yes</text><text fill="#000000" font-family="sans-serif" font-size="11" lengthAdjust="spacing" textLength="73.106" x="344.9836" y="463.4316">Nested tmux?</text><polygon fill="#F1F1F1" points="358.5,668.0176,404.5732,668.0176,416.5732,680.0176,404.5732,692.0176,358.5,692.0176,346.5,680.0176,358.5,668.0176" style="stroke:#181818;stroke-width:0.5;"/><text fill="#000000" font-family="sans-serif" font-size="11" lengthAdjust="spacing" textLength="46.0732" x="358.5" y="684.1748">In tmux?</text><text fill="#000000" font-family="sans-serif" font-size="11" lengthAdjust="spacing" textLength="17.4829" x="329.0171" y="677.6973">yes</text><text fill="#000000" font-family="sans-serif" font-size="11" lengthAdjust="spacing" textLength="13.5835" x="416.5732" y="677.6973">no</text><rect fill="#F1F1F1" height="48.2656" rx="12.5" ry="12.5" style="stroke:#181818;stroke-width:0.5;" width="207.8809" x="29.958" y="702.0176"/><text fill="#000000" font-family="sans-serif" font-size="12" lengthAdjust="spacing" textLength="187.8809" x="39.958" y="723.6191">Generate grouped session name</text><text fill="#000000" font-family="sans-serif" font-size="12" lengthAdjust="spacing" textLength="158.5547" x="39.958" y="737.752">agmgr-enter-{agent_id[:8]}</text><rect fill="#F1F1F1" height="48.2656" rx="12.5" ry="12.5" style="stroke:#181818;stroke-width:0.5;" width="217.7891" x="25.0039" y="832.8936"/><text fill="#000000" font-family="sans-serif" font-size="12" lengthAdjust="spacing" textLength="148.4531" x="35.0039" y="854.4951">Show confirmation dialog</text><text fill="#000000" font-family="sans-serif" font-size="12" lengthAdjust="spacing" textLength="197.7891" x="35.0039" y="868.6279">"Already accessed, enter anyway?"</text><rect fill="#F1F1F1" height="34.1328" rx="12.5" ry="12.5" style="stroke:#181818;stroke-width:0.5;" width="122.2754" x="72.7607" y="963.8252"/><text fill="#000000" font-family="sans-serif" font-size="12" lengthAdjust="spacing" textLength="102.2754" x="82.7607" y="985.4268">Re-enable button</text><ellipse cx="133.8984" cy="1043.958" fill="none" rx="11" ry="11" style="stroke:#222222;stroke-width:1;"/><ellipse cx="133.8984" cy="1043.958" fill="#222222" rx="6" ry="6" style="stroke:#222222;stroke-width:1;"/><polygon fill="#F1F1F1" points="94.4988,915.3477,173.2981,915.3477,185.2981,927.3477,173.2981,939.3477,94.4988,939.3477,82.4988,927.3477,94.4988,915.3477" style="stroke:#181818;stroke-width:0.5;"/><text fill="#000000" font-family="sans-serif" font-size="11" lengthAdjust="spacing" textLength="13.5835" x="137.8984" y="949.9824">no</text><text fill="#000000" font-family="sans-serif" font-size="11" lengthAdjust="spacing" textLength="78.7993" x="94.4988" y="931.5049">User confirms?</text><polygon fill="#F1F1F1" points="64.8208,784.416,202.9761,784.416,214.9761,796.416,202.9761,808.416,64.8208,808.416,52.8208,796.416,64.8208,784.416" style="stroke:#181818;stroke-width:0.5;"/><text fill="#000000" font-family="sans-serif" font-size="11" lengthAdjust="spacing" textLength="17.4829" x="137.8984" y="819.0508">yes</text><text fill="#000000" font-family="sans-serif" font-size="11" lengthAdjust="spacing" textLength="138.1553" x="64.8208" y="800.5732">Session exists with client?</text><polygon fill="#F1F1F1" points="133.8984,1109.9131,145.8984,1121.9131,133.8984,1133.9131,121.8984,1121.9131,133.8984,1109.9131" style="stroke:#181818;stroke-width:0.5;"/><rect fill="#F1F1F1" height="48.2656" rx="12.5" ry="12.5" style="stroke:#181818;stroke-width:0.5;" width="229.0215" x="19.3877" y="1168.9131"/><text fill="#000000" font-family="sans-serif" font-size="12" lengthAdjust="spacing" textLength="137.6191" x="29.3877" y="1190.5146">Create grouped session</text><text fill="#000000" font-family="sans-serif" font-size="12" lengthAdjust="spacing" textLength="209.0215" x="29.3877" y="1204.6475">tmux new-session -t agent_session</text><rect fill="#F1F1F1" height="48.2656" rx="12.5" ry="12.5" style="stroke:#181818;stroke-width:0.5;" width="196.0566" x="35.8701" y="1252.1787"/><text fill="#000000" font-family="sans-serif" font-size="12" lengthAdjust="spacing" textLength="176.0566" x="45.8701" y="1273.7803">Register client-detached hook</text><text fill="#000000" font-family="sans-serif" font-size="12" lengthAdjust="spacing" textLength="96.9023" x="45.8701" y="1287.9131">(kill if last client)</text><rect fill="#F1F1F1" height="34.1328" rx="12.5" ry="12.5" style="stroke:#181818;stroke-width:0.5;" width="245.5742" x="11.1113" y="1335.4443"/><text fill="#000000" font-family="sans-serif" font-size="12" lengthAdjust="spacing" textLength="225.5742" x="21.1113" y="1357.0459">tmux switch-client &#8594; grouped session</text><path d="M276.7969,1404.5771 L276.7969,1428.543 L256.7969,1432.543 L276.7969,1436.543 L276.7969,1460.5088 A0,0 0 0 0 276.7969,1460.5088 L474.4521,1460.5088 A0,0 0 0 0 474.4521,1460.5088 L474.4521,1414.5771 L464.4521,1404.5771 L276.7969,1404.5771 A0,0 0 0 0 276.7969,1404.5771" fill="#FEFFDD" style="stroke:#181818;stroke-width:0.5;"/><path d="M464.4521,1404.5771 L464.4521,1414.5771 L474.4521,1414.5771 L464.4521,1404.5771" fill="#FEFFDD" style="stroke:#181818;stroke-width:0.5;"/><text fill="#000000" font-family="sans-serif" font-size="13" lengthAdjust="spacing" textLength="139.9912" x="282.7969" y="1422.1455">TUI continues running</text><text fill="#000000" font-family="sans-serif" font-size="13" lengthAdjust="spacing" textLength="176.6553" x="282.7969" y="1437.4561">asyncio loop not suspended</text><text fill="#000000" font-family="sans-serif" font-size="13" lengthAdjust="spacing" textLength="123.7158" x="282.7969" y="1452.7666">MCP SSE unaffected</text><rect fill="#F1F1F1" height="34.1328" rx="12.5" ry="12.5" style="stroke:#181818;stroke-width:0.5;" width="245.7969" x="11" y="1415.4766"/><text fill="#000000" font-family="sans-serif" font-size="12" lengthAdjust="spacing" textLength="225.7969" x="21" y="1437.0781">Toast: "Attached &#8212; Ctrl+B D to return"</text><rect fill="#F1F1F1" height="34.1328" rx="12.5" ry="12.5" style="stroke:#181818;stroke-width:0.5;" width="256.6016" x="500.874" y="702.0176"/><text fill="#000000" font-family="sans-serif" font-size="12" lengthAdjust="spacing" textLength="236.6016" x="510.874" y="723.6191">Set _mcp_reconnect_needed if SSE active</text><rect fill="#F1F1F1" height="34.1328" rx="12.5" ry="12.5" style="stroke:#181818;stroke-width:0.5;" width="102.2539" x="578.0479" y="770.2832"/><text fill="#000000" font-family="sans-serif" font-size="12" lengthAdjust="spacing" textLength="82.2539" x="588.0479" y="791.8848">app.suspend()</text><path d="M750.1445,839.416 L750.1445,863.3818 L730.1445,867.3818 L750.1445,871.3818 L750.1445,895.3477 A0,0 0 0 0 750.1445,895.3477 L963.2056,895.3477 A0,0 0 0 0 963.2056,895.3477 L963.2056,849.416 L953.2056,839.416 L750.1445,839.416 A0,0 0 0 0 750.1445,839.416" fill="#FEFFDD" style="stroke:#181818;stroke-width:0.5;"/><path d="M953.2056,839.416 L953.2056,849.416 L963.2056,849.416 L953.2056,839.416" fill="#FEFFDD" style="stroke:#181818;stroke-width:0.5;"/><text fill="#000000" font-family="sans-serif" font-size="13" lengthAdjust="spacing" textLength="192.061" x="756.1445" y="856.9844">User interacts with agent pane</text><text fill="#000000" font-family="sans-serif" font-size="13" lengthAdjust="spacing" textLength="151.6265" x="756.1445" y="872.2949">asyncio loop suspended</text><text fill="#000000" font-family="sans-serif" font-size="13" lengthAdjust="spacing" textLength="181.8794" x="756.1445" y="887.6055">SSE connection may time out</text><rect fill="#F1F1F1" height="34.1328" rx="12.5" ry="12.5" style="stroke:#181818;stroke-width:0.5;" width="201.9395" x="528.2051" y="850.3154"/><text fill="#000000" font-family="sans-serif" font-size="12" lengthAdjust="spacing" textLength="181.9395" x="538.2051" y="871.917">tmux attach-session (blocking)</text><rect fill="#F1F1F1" height="34.1328" rx="12.5" ry="12.5" style="stroke:#181818;stroke-width:0.5;" width="96.3828" x="580.9834" y="929.5361"/><text fill="#000000" font-family="sans-serif" font-size="12" lengthAdjust="spacing" textLength="76.3828" x="590.9834" y="951.1377">app.resume()</text><rect fill="#F1F1F1" height="34.1328" rx="12.5" ry="12.5" style="stroke:#181818;stroke-width:0.5;" width="240.1367" x="509.1064" y="998.6689"/><text fill="#000000" font-family="sans-serif" font-size="12" lengthAdjust="spacing" textLength="220.1367" x="519.1064" y="1020.2705">app.refresh(layout=True) + tput reset</text><rect fill="#F1F1F1" height="34.1328" rx="12.5" ry="12.5" style="stroke:#181818;stroke-width:0.5;" width="146.6387" x="555.8555" y="1116.2793"/><text fill="#000000" font-family="sans-serif" font-size="12" lengthAdjust="spacing" textLength="126.6387" x="565.8555" y="1137.8809">Check SSE connection</text><rect fill="#F1F1F1" height="34.1328" rx="12.5" ry="12.5" style="stroke:#181818;stroke-width:0.5;" width="187.6133" x="535.3682" y="1233.8896"/><text fill="#000000" font-family="sans-serif" font-size="12" lengthAdjust="spacing" textLength="167.6133" x="545.3682" y="1255.4912">Toast: "Reconnecting MCP..."</text><rect fill="#F1F1F1" height="34.1328" rx="12.5" ry="12.5" style="stroke:#181818;stroke-width:0.5;" width="188.873" x="534.7383" y="1303.0225"/><text fill="#000000" font-family="sans-serif" font-size="12" lengthAdjust="spacing" textLength="168.873" x="544.7383" y="1324.624">Reconnect SSE (timeout 10 s)</text><rect fill="#F1F1F1" height="34.1328" rx="12.5" ry="12.5" style="stroke:#181818;stroke-width:0.5;" width="209.4453" x="524.4521" y="1420.6328"/><text fill="#000000" font-family="sans-serif" font-size="12" lengthAdjust="spacing" textLength="189.4453" x="534.4521" y="1442.2344">Toast: "MCP reconnection failed"</text><rect fill="#F1F1F1" height="34.1328" rx="12.5" ry="12.5" style="stroke:#181818;stroke-width:0.5;" width="150.377" x="553.9863" y="1489.7656"/><text fill="#000000" font-family="sans-serif" font-size="12" lengthAdjust="spacing" textLength="130.377" x="563.9863" y="1511.3672">Mark agents degraded</text><polygon fill="#F1F1F1" points="586.5686,1372.1553,671.781,1372.1553,683.781,1384.1553,671.781,1396.1553,586.5686,1396.1553,574.5686,1384.1553,586.5686,1372.1553" style="stroke:#181818;stroke-width:0.5;"/><text fill="#000000" font-family="sans-serif" font-size="11" lengthAdjust="spacing" textLength="17.4829" x="633.1748" y="1406.79">yes</text><text fill="#000000" font-family="sans-serif" font-size="11" lengthAdjust="spacing" textLength="85.2124" x="586.5686" y="1388.3125">Reconnect fails?</text><polygon fill="#F1F1F1" points="629.1748,1543.8984,641.1748,1555.8984,629.1748,1567.8984,617.1748,1555.8984,629.1748,1543.8984" style="stroke:#181818;stroke-width:0.5;"/><polygon fill="#F1F1F1" points="590.8547,1185.4121,667.4949,1185.4121,679.4949,1197.4121,667.4949,1209.4121,590.8547,1209.4121,578.8547,1197.4121,590.8547,1185.4121" style="stroke:#181818;stroke-width:0.5;"/><text fill="#000000" font-family="sans-serif" font-size="11" lengthAdjust="spacing" textLength="17.4829" x="633.1748" y="1220.0469">yes</text><text fill="#000000" font-family="sans-serif" font-size="11" lengthAdjust="spacing" textLength="76.6401" x="590.8547" y="1201.5693">Disconnected?</text><polygon fill="#F1F1F1" points="629.1748,1587.8984,641.1748,1599.8984,629.1748,1611.8984,617.1748,1599.8984,629.1748,1587.8984" style="stroke:#181818;stroke-width:0.5;"/><polygon fill="#F1F1F1" points="561.3862,1067.8018,696.9634,1067.8018,708.9634,1079.8018,696.9634,1091.8018,561.3862,1091.8018,549.3862,1079.8018,561.3862,1067.8018" style="stroke:#181818;stroke-width:0.5;"/><text fill="#000000" font-family="sans-serif" font-size="11" lengthAdjust="spacing" textLength="17.4829" x="633.1748" y="1102.4365">yes</text><text fill="#000000" font-family="sans-serif" font-size="11" lengthAdjust="spacing" textLength="135.5771" x="561.3862" y="1083.959">_mcp_reconnect_needed?</text><polygon fill="#F1F1F1" points="629.1748,1631.8984,641.1748,1643.8984,629.1748,1655.8984,617.1748,1643.8984,629.1748,1631.8984" style="stroke:#181818;stroke-width:0.5;"/><polygon fill="#F1F1F1" points="381.5366,1661.8984,393.5366,1673.8984,381.5366,1685.8984,369.5366,1673.8984,381.5366,1661.8984" style="stroke:#181818;stroke-width:0.5;"/><rect fill="#F1F1F1" height="34.1328" rx="12.5" ry="12.5" style="stroke:#181818;stroke-width:0.5;" width="217.1328" x="272.9702" y="1705.8984"/><text fill="#000000" font-family="sans-serif" font-size="12" lengthAdjust="spacing" textLength="197.1328" x="282.9702" y="1727.5">Force capture-pane poll for agent</text><rect fill="#F1F1F1" height="34.1328" rx="12.5" ry="12.5" style="stroke:#181818;stroke-width:0.5;" width="177.3242" x="292.8745" y="1760.0313"/><text fill="#000000" font-family="sans-serif" font-size="12" lengthAdjust="spacing" textLength="157.3242" x="302.8745" y="1781.6328">Refresh agent status in TUI</text><rect fill="#F1F1F1" height="34.1328" rx="12.5" ry="12.5" style="stroke:#181818;stroke-width:0.5;" width="156.1074" x="303.4829" y="1814.1641"/><text fill="#000000" font-family="sans-serif" font-size="12" lengthAdjust="spacing" textLength="136.1074" x="313.4829" y="1835.7656">Re-enable Enter button</text><ellipse cx="381.5366" cy="1879.2969" fill="none" rx="11" ry="11" style="stroke:#222222;stroke-width:1;"/><ellipse cx="381.5366" cy="1879.2969" fill="#222222" rx="6" ry="6" style="stroke:#222222;stroke-width:1;"/><line style="stroke:#181818;stroke-width:1;" x1="381.5366" x2="381.5366" y1="30" y2="50"/><polygon fill="#181818" points="377.5366,40,381.5366,50,385.5366,40,381.5366,44" style="stroke:#181818;stroke-width:1;"/><line style="stroke:#181818;stroke-width:1;" x1="381.5366" x2="381.5366" y1="84.1328" y2="104.1328"/><polygon fill="#181818" points="377.5366,94.1328,381.5366,104.1328,385.5366,94.1328,381.5366,98.1328" style="stroke:#181818;stroke-width:1;"/><line style="stroke:#181818;stroke-width:1;" x1="381.5366" x2="381.5366" y1="240.876" y2="260.876"/><polygon fill="#181818" points="377.5366,250.876,381.5366,260.876,385.5366,250.876,381.5366,254.876" style="stroke:#181818;stroke-width:1;"/><line style="stroke:#181818;stroke-width:1;" x1="381.5366" x2="381.5366" y1="295.0088" y2="315.0088"/><polygon fill="#181818" points="377.5366,305.0088,381.5366,315.0088,385.5366,305.0088,381.5366,309.0088" style="stroke:#181818;stroke-width:1;"/><line style="stroke:#181818;stroke-width:1;" x1="381.5366" x2="381.5366" y1="182.2656" y2="206.7432"/><polygon fill="#181818" points="377.5366,196.7432,381.5366,206.7432,385.5366,196.7432,381.5366,200.7432" style="stroke:#181818;stroke-width:1;"/><line style="stroke:#181818;stroke-width:1;" x1="470.1982" x2="499.1714" y1="170.2656" y2="170.2656"/><polygon fill="#181818" points="495.1714,258.876,499.1714,268.876,503.1714,258.876,499.1714,262.876" style="stroke:#181818;stroke-width:1;"/><line style="stroke:#181818;stroke-width:1;" x1="499.1714" x2="499.1714" y1="170.2656" y2="359.0088"/><line style="stroke:#181818;stroke-width:1;" x1="499.1714" x2="381.5366" y1="359.0088" y2="359.0088"/><line style="stroke:#181818;stroke-width:1;" x1="381.5366" x2="381.5366" y1="359.0088" y2="379.0088"/><polygon fill="#181818" points="377.5366,369.0088,381.5366,379.0088,385.5366,369.0088,381.5366,373.0088" style="stroke:#181818;stroke-width:1;"/><line style="stroke:#181818;stroke-width:1;" x1="381.5366" x2="381.5366" y1="138.2656" y2="158.2656"/><polygon fill="#181818" points="377.5366,148.2656,381.5366,158.2656,385.5366,148.2656,381.5366,152.2656" style="stroke:#181818;stroke-width:1;"/><line style="stroke:#181818;stroke-width:1;" x1="381.5366" x2="381.5366" y1="529.8848" y2="549.8848"/><polygon fill="#181818" points="377.5366,539.8848,381.5366,549.8848,385.5366,539.8848,381.5366,543.8848" style="stroke:#181818;stroke-width:1;"/><line style="stroke:#181818;stroke-width:1;" x1="381.5366" x2="381.5366" y1="584.0176" y2="604.0176"/><polygon fill="#181818" points="377.5366,594.0176,381.5366,604.0176,385.5366,594.0176,381.5366,598.0176" style="stroke:#181818;stroke-width:1;"/><line style="stroke:#181818;stroke-width:1;" x1="381.5366" x2="381.5366" y1="471.2744" y2="495.752"/><polygon fill="#181818" points="377.5366,485.752,381.5366,495.752,385.5366,485.752,381.5366,489.752" style="stroke:#181818;stroke-width:1;"/><line style="stroke:#181818;stroke-width:1;" x1="430.0896" x2="506.5454" y1="459.2744" y2="459.2744"/><polygon fill="#181818" points="502.5454,547.8848,506.5454,557.8848,510.5454,547.8848,506.5454,551.8848" style="stroke:#181818;stroke-width:1;"/><line style="stroke:#181818;stroke-width:1;" x1="506.5454" x2="506.5454" y1="459.2744" y2="648.0176"/><line style="stroke:#181818;stroke-width:1;" x1="506.5454" x2="381.5366" y1="648.0176" y2="648.0176"/><line style="stroke:#181818;stroke-width:1;" x1="381.5366" x2="381.5366" y1="648.0176" y2="668.0176"/><polygon fill="#181818" points="377.5366,658.0176,381.5366,668.0176,385.5366,658.0176,381.5366,662.0176" style="stroke:#181818;stroke-width:1;"/><line style="stroke:#181818;stroke-width:1;" x1="381.5366" x2="381.5366" y1="427.2744" y2="447.2744"/><polygon fill="#181818" points="377.5366,437.2744,381.5366,447.2744,385.5366,437.2744,381.5366,441.2744" style="stroke:#181818;stroke-width:1;"/><line style="stroke:#181818;stroke-width:1;" x1="133.8984" x2="133.8984" y1="997.958" y2="1032.958"/><polygon fill="#181818" points="129.8984,1022.958,133.8984,1032.958,137.8984,1022.958,133.8984,1026.958" style="stroke:#181818;stroke-width:1;"/><line style="stroke:#181818;stroke-width:1;" x1="133.8984" x2="133.8984" y1="939.3477" y2="963.8252"/><polygon fill="#181818" points="129.8984,953.8252,133.8984,963.8252,137.8984,953.8252,133.8984,957.8252" style="stroke:#181818;stroke-width:1;"/><line style="stroke:#181818;stroke-width:1;" x1="185.2981" x2="205.0361" y1="927.3477" y2="927.3477"/><polygon fill="#181818" points="201.0361,996.3916,205.0361,1006.3916,209.0361,996.3916,205.0361,1000.3916" style="stroke:#181818;stroke-width:1;"/><line style="stroke:#181818;stroke-width:1;" x1="205.0361" x2="205.0361" y1="927.3477" y2="1085.4355"/><line style="stroke:#181818;stroke-width:1;" x1="205.0361" x2="133.8984" y1="1085.4355" y2="1085.4355"/><line style="stroke:#181818;stroke-width:1;" x1="133.8984" x2="133.8984" y1="1085.4355" y2="1109.9131"/><polygon fill="#181818" points="129.8984,1099.9131,133.8984,1109.9131,137.8984,1099.9131,133.8984,1103.9131" style="stroke:#181818;stroke-width:1;"/><line style="stroke:#181818;stroke-width:1;" x1="133.8984" x2="133.8984" y1="881.1592" y2="915.3477"/><polygon fill="#181818" points="129.8984,905.3477,133.8984,915.3477,137.8984,905.3477,133.8984,909.3477" style="stroke:#181818;stroke-width:1;"/><line style="stroke:#181818;stroke-width:1;" x1="133.8984" x2="133.8984" y1="808.416" y2="832.8936"/><polygon fill="#181818" points="129.8984,822.8936,133.8984,832.8936,137.8984,822.8936,133.8984,826.8936" style="stroke:#181818;stroke-width:1;"/><line style="stroke:#181818;stroke-width:1;" x1="214.9761" x2="252.793" y1="796.416" y2="796.416"/><polygon fill="#181818" points="248.793,948.7588,252.793,958.7588,256.793,948.7588,252.793,952.7588" style="stroke:#181818;stroke-width:1;"/><line style="stroke:#181818;stroke-width:1;" x1="252.793" x2="252.793" y1="796.416" y2="1121.9131"/><line style="stroke:#181818;stroke-width:1;" x1="252.793" x2="145.8984" y1="1121.9131" y2="1121.9131"/><polygon fill="#181818" points="155.8984,1117.9131,145.8984,1121.9131,155.8984,1125.9131,151.8984,1121.9131" style="stroke:#181818;stroke-width:1;"/><line style="stroke:#181818;stroke-width:1;" x1="133.8984" x2="133.8984" y1="750.2832" y2="784.416"/><polygon fill="#181818" points="129.8984,774.416,133.8984,784.416,137.8984,774.416,133.8984,778.416" style="stroke:#181818;stroke-width:1;"/><line style="stroke:#181818;stroke-width:1;" x1="133.8984" x2="133.8984" y1="1133.9131" y2="1168.9131"/><polygon fill="#181818" points="129.8984,1158.9131,133.8984,1168.9131,137.8984,1158.9131,133.8984,1162.9131" style="stroke:#181818;stroke-width:1;"/><line style="stroke:#181818;stroke-width:1;" x1="133.8984" x2="133.8984" y1="1217.1787" y2="1252.1787"/><polygon fill="#181818" points="129.8984,1242.1787,133.8984,1252.1787,137.8984,1242.1787,133.8984,1246.1787" style="stroke:#181818;stroke-width:1;"/><line style="stroke:#181818;stroke-width:1;" x1="133.8984" x2="133.8984" y1="1300.4443" y2="1335.4443"/><polygon fill="#181818" points="129.8984,1325.4443,133.8984,1335.4443,137.8984,1325.4443,133.8984,1329.4443" style="stroke:#181818;stroke-width:1;"/><line style="stroke:#181818;stroke-width:1;" x1="133.8984" x2="133.8984" y1="1369.5771" y2="1415.4766"/><polygon fill="#181818" points="129.8984,1405.4766,133.8984,1415.4766,137.8984,1405.4766,133.8984,1409.4766" style="stroke:#181818;stroke-width:1;"/><line style="stroke:#181818;stroke-width:1;" x1="629.1748" x2="629.1748" y1="736.1504" y2="770.2832"/><polygon fill="#181818" points="625.1748,760.2832,629.1748,770.2832,633.1748,760.2832,629.1748,764.2832" style="stroke:#181818;stroke-width:1;"/><line style="stroke:#181818;stroke-width:1;" x1="629.1748" x2="629.1748" y1="804.416" y2="850.3154"/><polygon fill="#181818" points="625.1748,840.3154,629.1748,850.3154,633.1748,840.3154,629.1748,844.3154" style="stroke:#181818;stroke-width:1;"/><line style="stroke:#181818;stroke-width:1;" x1="629.1748" x2="629.1748" y1="884.4482" y2="929.5361"/><polygon fill="#181818" points="625.1748,919.5361,629.1748,929.5361,633.1748,919.5361,629.1748,923.5361" style="stroke:#181818;stroke-width:1;"/><line style="stroke:#181818;stroke-width:1;" x1="629.1748" x2="629.1748" y1="963.6689" y2="998.6689"/><polygon fill="#181818" points="625.1748,988.6689,629.1748,998.6689,633.1748,988.6689,629.1748,992.6689" style="stroke:#181818;stroke-width:1;"/><line style="stroke:#181818;stroke-width:1;" x1="629.1748" x2="629.1748" y1="1268.0225" y2="1303.0225"/><polygon fill="#181818" points="625.1748,1293.0225,629.1748,1303.0225,633.1748,1293.0225,629.1748,1297.0225" style="stroke:#181818;stroke-width:1;"/><line style="stroke:#181818;stroke-width:1;" x1="629.1748" x2="629.1748" y1="1454.7656" y2="1489.7656"/><polygon fill="#181818" points="625.1748,1479.7656,629.1748,1489.7656,633.1748,1479.7656,629.1748,1483.7656" style="stroke:#181818;stroke-width:1;"/><line style="stroke:#181818;stroke-width:1;" x1="629.1748" x2="629.1748" y1="1396.1553" y2="1420.6328"/><polygon fill="#181818" points="625.1748,1410.6328,629.1748,1420.6328,633.1748,1410.6328,629.1748,1414.6328" style="stroke:#181818;stroke-width:1;"/><line style="stroke:#181818;stroke-width:1;" x1="683.781" x2="743.8975" y1="1384.1553" y2="1384.1553"/><polygon fill="#181818" points="739.8975,1462.2656,743.8975,1472.2656,747.8975,1462.2656,743.8975,1466.2656" style="stroke:#181818;stroke-width:1;"/><line style="stroke:#181818;stroke-width:1;" x1="743.8975" x2="743.8975" y1="1384.1553" y2="1555.8984"/><line style="stroke:#181818;stroke-width:1;" x1="743.8975" x2="641.1748" y1="1555.8984" y2="1555.8984"/><polygon fill="#181818" points="651.1748,1551.8984,641.1748,1555.8984,651.1748,1559.8984,647.1748,1555.8984" style="stroke:#181818;stroke-width:1;"/><line style="stroke:#181818;stroke-width:1;" x1="629.1748" x2="629.1748" y1="1523.8984" y2="1543.8984"/><polygon fill="#181818" points="625.1748,1533.8984,629.1748,1543.8984,633.1748,1533.8984,629.1748,1537.8984" style="stroke:#181818;stroke-width:1;"/><line style="stroke:#181818;stroke-width:1;" x1="629.1748" x2="629.1748" y1="1337.1553" y2="1372.1553"/><polygon fill="#181818" points="625.1748,1362.1553,629.1748,1372.1553,633.1748,1362.1553,629.1748,1366.1553" style="stroke:#181818;stroke-width:1;"/><line style="stroke:#181818;stroke-width:1;" x1="629.1748" x2="629.1748" y1="1209.4121" y2="1233.8896"/><polygon fill="#181818" points="625.1748,1223.8896,629.1748,1233.8896,633.1748,1223.8896,629.1748,1227.8896" style="stroke:#181818;stroke-width:1;"/><line style="stroke:#181818;stroke-width:1;" x1="679.4949" x2="765.8975" y1="1197.4121" y2="1197.4121"/><polygon fill="#181818" points="761.8975,1393.1328,765.8975,1403.1328,769.8975,1393.1328,765.8975,1397.1328" style="stroke:#181818;stroke-width:1;"/><line style="stroke:#181818;stroke-width:1;" x1="765.8975" x2="765.8975" y1="1197.4121" y2="1599.8984"/><line style="stroke:#181818;stroke-width:1;" x1="765.8975" x2="641.1748" y1="1599.8984" y2="1599.8984"/><polygon fill="#181818" points="651.1748,1595.8984,641.1748,1599.8984,651.1748,1603.8984,647.1748,1599.8984" style="stroke:#181818;stroke-width:1;"/><line style="stroke:#181818;stroke-width:1;" x1="629.1748" x2="629.1748" y1="1567.8984" y2="1587.8984"/><polygon fill="#181818" points="625.1748,1577.8984,629.1748,1587.8984,633.1748,1577.8984,629.1748,1581.8984" style="stroke:#181818;stroke-width:1;"/><line style="stroke:#181818;stroke-width:1;" x1="629.1748" x2="629.1748" y1="1150.4121" y2="1185.4121"/><polygon fill="#181818" points="625.1748,1175.4121,629.1748,1185.4121,633.1748,1175.4121,629.1748,1179.4121" style="stroke:#181818;stroke-width:1;"/><line style="stroke:#181818;stroke-width:1;" x1="629.1748" x2="629.1748" y1="1091.8018" y2="1116.2793"/><polygon fill="#181818" points="625.1748,1106.2793,629.1748,1116.2793,633.1748,1106.2793,629.1748,1110.2793" style="stroke:#181818;stroke-width:1;"/><line style="stroke:#181818;stroke-width:1;" x1="708.9634" x2="787.8975" y1="1079.8018" y2="1079.8018"/><polygon fill="#181818" points="783.8975,1358.5664,787.8975,1368.5664,791.8975,1358.5664,787.8975,1362.5664" style="stroke:#181818;stroke-width:1;"/><line style="stroke:#181818;stroke-width:1;" x1="787.8975" x2="787.8975" y1="1079.8018" y2="1643.8984"/><line style="stroke:#181818;stroke-width:1;" x1="787.8975" x2="641.1748" y1="1643.8984" y2="1643.8984"/><polygon fill="#181818" points="651.1748,1639.8984,641.1748,1643.8984,651.1748,1647.8984,647.1748,1643.8984" style="stroke:#181818;stroke-width:1;"/><line style="stroke:#181818;stroke-width:1;" x1="629.1748" x2="629.1748" y1="1611.8984" y2="1631.8984"/><polygon fill="#181818" points="625.1748,1621.8984,629.1748,1631.8984,633.1748,1621.8984,629.1748,1625.8984" style="stroke:#181818;stroke-width:1;"/><line style="stroke:#181818;stroke-width:1;" x1="629.1748" x2="629.1748" y1="1032.8018" y2="1067.8018"/><polygon fill="#181818" points="625.1748,1057.8018,629.1748,1067.8018,633.1748,1057.8018,629.1748,1061.8018" style="stroke:#181818;stroke-width:1;"/><line style="stroke:#181818;stroke-width:1;" x1="346.5" x2="133.8984" y1="680.0176" y2="680.0176"/><line style="stroke:#181818;stroke-width:1;" x1="133.8984" x2="133.8984" y1="680.0176" y2="702.0176"/><polygon fill="#181818" points="129.8984,692.0176,133.8984,702.0176,137.8984,692.0176,133.8984,696.0176" style="stroke:#181818;stroke-width:1;"/><line style="stroke:#181818;stroke-width:1;" x1="416.5732" x2="629.1748" y1="680.0176" y2="680.0176"/><line style="stroke:#181818;stroke-width:1;" x1="629.1748" x2="629.1748" y1="680.0176" y2="702.0176"/><polygon fill="#181818" points="625.1748,692.0176,629.1748,702.0176,633.1748,692.0176,629.1748,696.0176" style="stroke:#181818;stroke-width:1;"/><line style="stroke:#181818;stroke-width:1;" x1="133.8984" x2="133.8984" y1="1449.6094" y2="1673.8984"/><line style="stroke:#181818;stroke-width:1;" x1="133.8984" x2="369.5366" y1="1673.8984" y2="1673.8984"/><polygon fill="#181818" points="359.5366,1669.8984,369.5366,1673.8984,359.5366,1677.8984,363.5366,1673.8984" style="stroke:#181818;stroke-width:1;"/><line style="stroke:#181818;stroke-width:1;" x1="629.1748" x2="629.1748" y1="1655.8984" y2="1673.8984"/><line style="stroke:#181818;stroke-width:1;" x1="629.1748" x2="393.5366" y1="1673.8984" y2="1673.8984"/><polygon fill="#181818" points="403.5366,1669.8984,393.5366,1673.8984,403.5366,1677.8984,399.5366,1673.8984" style="stroke:#181818;stroke-width:1;"/><line style="stroke:#181818;stroke-width:1;" x1="381.5366" x2="381.5366" y1="1685.8984" y2="1705.8984"/><polygon fill="#181818" points="377.5366,1695.8984,381.5366,1705.8984,385.5366,1695.8984,381.5366,1699.8984" style="stroke:#181818;stroke-width:1;"/><line style="stroke:#181818;stroke-width:1;" x1="381.5366" x2="381.5366" y1="1740.0313" y2="1760.0313"/><polygon fill="#181818" points="377.5366,1750.0313,381.5366,1760.0313,385.5366,1750.0313,381.5366,1754.0313" style="stroke:#181818;stroke-width:1;"/><line style="stroke:#181818;stroke-width:1;" x1="381.5366" x2="381.5366" y1="1794.1641" y2="1814.1641"/><polygon fill="#181818" points="377.5366,1804.1641,381.5366,1814.1641,385.5366,1804.1641,381.5366,1808.1641" style="stroke:#181818;stroke-width:1;"/><line style="stroke:#181818;stroke-width:1;" x1="381.5366" x2="381.5366" y1="1848.2969" y2="1868.2969"/><polygon fill="#181818" points="377.5366,1858.2969,381.5366,1868.2969,385.5366,1858.2969,381.5366,1862.2969" style="stroke:#181818;stroke-width:1;"/><?plantuml-src ZLLDQzj04BthLmoc1vjKfhqLcn9I9oqvf8JOWK9Tp4OQIOkbNR4xYYDAeQVyWD9Vc5_IsTNAN_6XliJPdPdtvisRjILXA8ecznOD9ALCrXQk5F4_Mi55ZefkXS9fDBcKLZoK62uV6YAjfb4aCnZwC2Y41P6GV4IWgdc2clFEHq05AXWgFOe09WijB4rWiCjGkazoyOEfYxh369K7ws40BEawGfNAZCbU8c52WEfH6gqghhLKmpUBc_jlS0Qfj7KfshX2QqMEeq3oArh2r5FRichH7j3QYs5Y1BQfQstuwFzuEPXhTGB29Nz1XKOGGcvqKpEAPNwIHLQYmgKIUPKRBi_YnZ-5asSbq--J3pz-JLswApqF2VWaBLdOI2hSn3Zqk266cnTw0ubMcJIL89UMIb7gVAa65wL1aRQiUy8LCNqB7XQ4QZUYFVUzTeYTAReYzcYM7kMK8kxZLN5VEcNwlqw76OE_Lc6fEj5n4_Uwn0IT3k4WZ23dvZkhybsS8ecau3g5rcismLgMfQDUya13pCWd-lAMDKkAk3k7b-S_npIc1oQbKFlbzr-OaIdFFi4ba0Q3r1Wry8DXco0OcHVa-rtSNpl1IAe6BPX6AQboVoDignAfeTIw3kQoDSk2gR--cTt2V7u5ZH9PnkRsntpj0Q88IukTyexX70bMLLAl33AOul2LGkHIhdLNfLiftusewt606kv98NnpMx673wLErinrTAehxmFfJCA5W_FyRFpIlcxli3L7AD1qK9LeWMI5e1iww36GDMYR2WFNxY3ZisB8Iyqf7nUcmH7lETKDyIWiqdP3JcfoOZbc1IRh8ruxr_DB5uvF9UyPvAv7OjtS0CVZyM2wMurmwN66hcDc3-_VWHtrGGvj5vS9MTfJW7kGpYRR1fsQBYcyJo7qHfXrDnqBAUP6i0RzTR-EhnQpVra_QvCW9A9cXsFifWkrvfNAjEbgyY_1NJUFu01BWXhBxd3UzxVzat3qI-7UX7y0?></g></svg>