<?plantuml 1.2026.2?><svg xmlns="http://www.w3.org/2000/svg" xmlns:xlink="http://www.w3.org/1999/xlink" contentStyleType="text/css" data-diagram-type="DESCRIPTION" height="660px" preserveAspectRatio="none" style="width:1255px;height:660px;background:#FAFAFA;" version="1.1" viewBox="0 0 1255 660" width="1255px" zoomAndPan="magnify"><defs/><g><rect fill="#FAFAFA" height="660" style="stroke:none;stroke-width:1;" width="1255" x="0" y="0"/><!--cluster frontend/--><g class="cluster" data-qualified-name="frontend." data-source-line="16" id="ent0002"><path d="M143.5,6 L215.0674,6 A3.75,3.75 0 0 1 217.5674,8.5 L224.5674,28.4883 L643.5,28.4883 A2.5,2.5 0 0 1 646,30.9883 L646,482.84 A2.5,2.5 0 0 1 643.5,485.34 L143.5,485.34 A2.5,2.5 0 0 1 141,482.84 L141,8.5 A2.5,2.5 0 0 1 143.5,6" fill="#FFF9E6" style="stroke:#F39C12;stroke-width:1.5;"/><line style="stroke:#F39C12;stroke-width:1.5;" x1="141" x2="224.5674" y1="28.4883" y2="28.4883"/><text fill="#000000" font-family="sans-serif" font-size="14" font-weight="bold" lengthAdjust="spacing" textLength="70.5674" x="145" y="21.5352">frontend/</text></g><!--cluster backend/--><g class="cluster" data-qualified-name="backend." data-source-line="23" id="ent0007"><path d="M672.5,356.63 L741.9072,356.63 A3.75,3.75 0 0 1 744.4072,359.13 L751.4072,379.1183 L1053.5,379.1183 A2.5,2.5 0 0 1 1056,381.6183 L1056,458.11 A2.5,2.5 0 0 1 1053.5,460.61 L672.5,460.61 A2.5,2.5 0 0 1 670,458.11 L670,359.13 A2.5,2.5 0 0 1 672.5,356.63" fill="#FFF9E6" style="stroke:#F39C12;stroke-width:1.5;"/><line style="stroke:#F39C12;stroke-width:1.5;" x1="670" x2="751.4072" y1="379.1183" y2="379.1183"/><text fill="#000000" font-family="sans-serif" font-size="14" font-weight="bold" lengthAdjust="spacing" textLength="68.4072" x="674" y="372.1652">backend/</text></g><!--cluster shared/--><g class="cluster" data-qualified-name="shared." data-source-line="28" id="ent0010"><path d="M8.5,549.34 L66.6006,549.34 A3.75,3.75 0 0 1 69.1006,551.84 L76.1006,571.8283 L121.5,571.8283 A2.5,2.5 0 0 1 124,574.3283 L124,650.82 A2.5,2.5 0 0 1 121.5,653.32 L8.5,653.32 A2.5,2.5 0 0 1 6,650.82 L6,551.84 A2.5,2.5 0 0 1 8.5,549.34" fill="#FFF9E6" style="stroke:#F39C12;stroke-width:1.5;"/><line style="stroke:#F39C12;stroke-width:1.5;" x1="6" x2="76.1006" y1="571.8283" y2="571.8283"/><text fill="#000000" font-family="sans-serif" font-size="14" font-weight="bold" lengthAdjust="spacing" textLength="57.1006" x="10" y="564.8752">shared/</text></g><!--cluster OS / tmux--><g class="cluster" data-qualified-name="OS . tmux" data-source-line="32" id="ent0012"><path d="M150.5,549.34 L224.8838,549.34 A3.75,3.75 0 0 1 227.3838,551.84 L234.3838,571.8283 L622.5,571.8283 A2.5,2.5 0 0 1 625,574.3283 L625,650.82 A2.5,2.5 0 0 1 622.5,653.32 L150.5,653.32 A2.5,2.5 0 0 1 148,650.82 L148,551.84 A2.5,2.5 0 0 1 150.5,549.34" fill="#FFF9E6" style="stroke:#F39C12;stroke-width:1.5;"/><line style="stroke:#F39C12;stroke-width:1.5;" x1="148" x2="234.3838" y1="571.8283" y2="571.8283"/><text fill="#000000" font-family="sans-serif" font-size="14" font-weight="bold" lengthAdjust="spacing" textLength="73.3838" x="152" y="564.8752">OS / tmux</text></g><!--entity AgentPane--><g class="entity" data-qualified-name="frontend..AgentPane" data-source-line="17" id="ent0003"><rect fill="#E8F4FD" height="69.4648" rx="2.5" ry="2.5" style="stroke:#2980B9;stroke-width:0.5;" width="183.584" x="368.21" y="41"/><text fill="#000000" font-family="sans-serif" font-size="14" lengthAdjust="spacing" textLength="98.7725" x="378.21" y="64.5352">agent_pane.py</text><text fill="#000000" font-family="sans-serif" font-size="14" lengthAdjust="spacing" textLength="163.584" x="378.21" y="81.0234">+ AttachRequested msg</text><text fill="#000000" font-family="sans-serif" font-size="14" lengthAdjust="spacing" textLength="100.29" x="378.21" y="97.5117">+ Enter button</text></g><!--entity App--><g class="entity" data-qualified-name="frontend..App" data-source-line="18" id="ent0004"><rect fill="#E8F4FD" height="102.4414" rx="2.5" ry="2.5" style="stroke:#2980B9;stroke-width:0.5;" width="176.4541" x="411.77" y="187.46"/><text fill="#000000" font-family="sans-serif" font-size="14" lengthAdjust="spacing" textLength="45.9102" x="421.77" y="210.9952">app.py</text><text fill="#000000" font-family="sans-serif" font-size="14" lengthAdjust="spacing" textLength="156.4541" x="421.77" y="227.4834">+ on_attach_requested</text><text fill="#000000" font-family="sans-serif" font-size="14" lengthAdjust="spacing" textLength="152.9336" x="421.77" y="243.9717">+ _do_grouped_attach</text><text fill="#000000" font-family="sans-serif" font-size="14" lengthAdjust="spacing" textLength="152.8379" x="421.77" y="260.46">+ _do_suspend_attach</text><text fill="#000000" font-family="sans-serif" font-size="14" lengthAdjust="spacing" textLength="135.4951" x="421.77" y="276.9483">+ _check_mcp_alive</text></g><!--entity TmuxAttach--><g class="entity" data-qualified-name="frontend..TmuxAttach" data-source-line="19" id="ent0005"><rect fill="#E8F4FD" height="102.4414" rx="2.5" ry="2.5" style="stroke:#2980B9;stroke-width:0.5;" width="185.6758" x="159.16" y="366.9"/><text fill="#000000" font-family="sans-serif" font-size="14" lengthAdjust="spacing" textLength="145.7422" x="169.16" y="390.4352">tmux_attach.py (new)</text><text fill="#000000" font-family="sans-serif" font-size="14" lengthAdjust="spacing" textLength="115.0693" x="169.16" y="406.9234">grouped_attach()</text><text fill="#000000" font-family="sans-serif" font-size="14" lengthAdjust="spacing" textLength="114.9736" x="169.16" y="423.4117">suspend_attach()</text><text fill="#000000" font-family="sans-serif" font-size="14" lengthAdjust="spacing" textLength="165.6758" x="169.16" y="439.9">cleanup_stale_sessions()</text><text fill="#000000" font-family="sans-serif" font-size="14" lengthAdjust="spacing" textLength="149.5498" x="169.16" y="456.3883">cleanup_all_sessions()</text></g><!--entity Dialogs--><g class="entity" data-qualified-name="frontend..Dialogs" data-source-line="20" id="ent0006"><rect fill="#E8F4FD" height="52.9766" rx="2.5" ry="2.5" style="stroke:#2980B9;stroke-width:0.5;" width="161.7773" x="381.11" y="391.63"/><text fill="#000000" font-family="sans-serif" font-size="14" lengthAdjust="spacing" textLength="69.6582" x="391.11" y="415.1652">dialogs.py</text><text fill="#000000" font-family="sans-serif" font-size="14" lengthAdjust="spacing" textLength="141.7773" x="391.11" y="431.6534">ConfirmDeleteDialog</text></g><!--entity MCP--><g class="entity" data-qualified-name="backend..MCP" data-source-line="24" id="ent0008"><rect fill="#E8F4FD" height="52.9766" rx="2.5" ry="2.5" style="stroke:#2980B9;stroke-width:0.5;" width="148.4609" x="685.77" y="391.63"/><text fill="#000000" font-family="sans-serif" font-size="14" lengthAdjust="spacing" textLength="98.0479" x="695.77" y="415.1652">mcp_server.py</text><text fill="#000000" font-family="sans-serif" font-size="14" lengthAdjust="spacing" textLength="128.4609" x="695.77" y="431.6534">FastMCP SSE :8765</text></g><!--entity SM--><g class="entity" data-qualified-name="backend..SM" data-source-line="25" id="ent0009"><rect fill="#E8F4FD" height="52.9766" rx="2.5" ry="2.5" style="stroke:#2980B9;stroke-width:0.5;" width="170.8486" x="869.58" y="391.63"/><text fill="#000000" font-family="sans-serif" font-size="14" lengthAdjust="spacing" textLength="137.5801" x="879.58" y="415.1652">session_manager.py</text><text fill="#000000" font-family="sans-serif" font-size="14" lengthAdjust="spacing" textLength="150.8486" x="879.58" y="431.6534">Session.tmux_pane_id</text></g><!--entity Config--><g class="entity" data-qualified-name="shared..Config" data-source-line="29" id="ent0011"><rect fill="#E8F4FD" height="52.9766" rx="2.5" ry="2.5" style="stroke:#2980B9;stroke-width:0.5;" width="86.6094" x="21.7" y="584.34"/><text fill="#000000" font-family="sans-serif" font-size="14" lengthAdjust="spacing" textLength="62.9385" x="31.7" y="607.8752">config.py</text><text fill="#000000" font-family="sans-serif" font-size="14" lengthAdjust="spacing" textLength="66.6094" x="31.7" y="624.3634">TEMP_DIR</text></g><!--entity Tmux--><g class="entity" data-qualified-name="OS . tmux.Tmux" data-source-line="33" id="ent0013"><rect fill="#E8F4FD" height="52.9766" rx="2.5" ry="2.5" style="stroke:#2980B9;stroke-width:0.5;" width="176.2832" x="163.86" y="584.34"/><text fill="#000000" font-family="sans-serif" font-size="14" lengthAdjust="spacing" textLength="81.4502" x="173.86" y="607.8752">tmux server</text><text fill="#000000" font-family="sans-serif" font-size="14" lengthAdjust="spacing" textLength="156.2832" x="173.86" y="624.3634">agmgr-enter-{id}-{pid}</text></g><!--entity Sentinel--><g class="entity" data-qualified-name="OS . tmux.Sentinel" data-source-line="34" id="ent0014"><rect fill="#E8F4FD" height="52.9766" rx="2.5" ry="2.5" style="stroke:#2980B9;stroke-width:0.5;" width="233.4248" x="375.29" y="584.34"/><text fill="#000000" font-family="sans-serif" font-size="14" lengthAdjust="spacing" textLength="79.3174" x="385.29" y="607.8752">Sentinel file</text><text fill="#000000" font-family="sans-serif" font-size="14" lengthAdjust="spacing" textLength="213.4248" x="385.29" y="624.3634">TEMP_DIR/attach_sentinel_*.txt</text></g><g class="entity" data-qualified-name="GMN23" data-source-line="47" id="ent0024"><path d="M1075.92,390.16 L1075.92,446.0916 L1248.0831,446.0916 L1248.0831,400.16 L1238.0831,390.16 L1075.92,390.16" fill="#FFFDE7" style="stroke:#F9A825;stroke-width:0.5;"/><path d="M1238.0831,390.16 L1238.0831,400.16 L1248.0831,400.16 L1238.0831,390.16" fill="#FFFDE7" style="stroke:#F9A825;stroke-width:1;"/><text fill="#000000" font-family="sans-serif" font-size="13" lengthAdjust="spacing" textLength="130.2412" x="1081.92" y="407.7284">Pure async functions</text><text fill="#000000" font-family="sans-serif" font-size="13" lengthAdjust="spacing" textLength="151.1631" x="1081.92" y="423.0389">_runner param injection</text><text fill="#000000" font-family="sans-serif" font-size="13" lengthAdjust="spacing" textLength="84.0811" x="1081.92" y="438.3495">for testability</text></g><g class="entity" data-qualified-name="GMN26" data-source-line="53" id="ent0027"><path d="M662.44,203.06 L662.44,234.68 L588.57,238.68 L662.44,242.68 L662.44,274.3022 A0,0 0 0 0 662.44,274.3022 L885.5557,274.3022 A0,0 0 0 0 885.5557,274.3022 L885.5557,213.06 L875.5557,203.06 L662.44,203.06 A0,0 0 0 0 662.44,203.06" fill="#FFFDE7" style="stroke:#F9A825;stroke-width:0.5;"/><path d="M875.5557,203.06 L875.5557,213.06 L885.5557,213.06 L875.5557,203.06" fill="#FFFDE7" style="stroke:#F9A825;stroke-width:0.5;"/><text fill="#000000" font-family="sans-serif" font-size="13" lengthAdjust="spacing" textLength="174.0972" x="668.44" y="220.6284">Grouped path: asyncio loop</text><text fill="#000000" font-family="sans-serif" font-size="13" lengthAdjust="spacing" textLength="162.481" x="668.44" y="235.9389">stays live (SSE unaffected)</text><text fill="#000000" font-family="sans-serif" font-size="13" lengthAdjust="spacing" textLength="194.4478" x="668.44" y="251.2495">Suspend path: loop suspended</text><text fill="#000000" font-family="sans-serif" font-size="13" lengthAdjust="spacing" textLength="202.1157" x="668.44" y="266.56">briefly; MCP checked on resume</text></g><!--link AgentPane to App--><g class="link" data-entity-1="ent0003" data-entity-2="ent0004" data-link-type="dependency" data-source-line="37" id="lnk15"><path d="M468.48,110.86 C473.99,133.01 479.8131,156.4371 485.9831,181.2671" fill="none" id="AgentPane-to-App" style="stroke:#181818;stroke-width:1;"/><polygon fill="#181818" points="487.43,187.09,489.1415,177.391,486.2242,182.2376,481.3777,179.3202,487.43,187.09" style="stroke:#181818;stroke-width:1;"/><text fill="#000000" font-family="sans-serif" font-size="13" lengthAdjust="spacing" textLength="168.8223" x="481" y="154.0284">AttachRequested(agent_id)</text></g><!--link App to TmuxAttach--><g class="link" data-entity-1="ent0004" data-entity-2="ent0005" data-link-type="dependency" data-source-line="38" id="lnk16"><path d="M411.3,255.68 C345.04,269.66 262.51,292.04 242,319.9 C232.24,333.16 230.3532,344.3968 232.9732,360.6168" fill="none" id="App-to-TmuxAttach" style="stroke:#181818;stroke-width:1;"/><polygon fill="#181818" points="233.93,366.54,236.4437,357.0173,233.1327,361.604,228.546,358.293,233.93,366.54" style="stroke:#181818;stroke-width:1;"/><text fill="#000000" font-family="sans-serif" font-size="13" lengthAdjust="spacing" textLength="228.6553" x="243" y="333.4684">grouped_attach() / suspend_attach()</text></g><!--link App to Dialogs--><g class="link" data-entity-1="ent0004" data-entity-2="ent0006" data-link-type="dependency" data-source-line="39" id="lnk17"><path d="M489.21,290.05 C482.15,323.05 474.4681,358.9334 468.7981,385.3734" fill="none" id="App-to-Dialogs" style="stroke:#181818;stroke-width:1;"/><polygon fill="#181818" points="467.54,391.24,473.3382,383.2788,468.5884,386.3512,465.516,381.6013,467.54,391.24" style="stroke:#181818;stroke-width:1;"/><text fill="#000000" font-family="sans-serif" font-size="13" lengthAdjust="spacing" textLength="166.1753" x="483.14" y="333.4684">concurrent access confirm</text></g><!--link App to MCP--><g class="link" data-entity-1="ent0004" data-entity-2="ent0008" data-link-type="dependency" data-source-line="40" id="lnk18"><path d="M588.32,278.82 C611.77,290.72 636.53,304.71 658,319.9 C687.76,340.95 713.333,366.0466 732.933,387.0166" fill="none" id="App-to-MCP" style="stroke:#181818;stroke-width:1;"/><polygon fill="#181818" points="737.03,391.4,733.8067,382.0935,733.6158,387.7472,727.9622,387.5562,737.03,391.4" style="stroke:#181818;stroke-width:1;"/><text fill="#000000" font-family="sans-serif" font-size="13" lengthAdjust="spacing" textLength="160.8496" x="680.32" y="333.4684">_check_mcp_alive() probe</text></g><!--link TmuxAttach to Tmux--><g class="link" data-entity-1="ent0005" data-entity-2="ent0013" data-link-type="dependency" data-source-line="41" id="lnk19"><path d="M252,469.73 C252,506.47 252,548.69 252,577.91" fill="none" id="TmuxAttach-to-Tmux" style="stroke:#181818;stroke-width:1;"/><polygon fill="#181818" points="252,583.91,256,574.91,252,578.91,248,574.91,252,583.91" style="stroke:#181818;stroke-width:1;"/><text fill="#000000" font-family="sans-serif" font-size="13" lengthAdjust="spacing" textLength="176.687" x="253" y="514.9084">new-session / switch-client</text><text fill="#000000" font-family="sans-serif" font-size="13" lengthAdjust="spacing" textLength="146.2627" x="268.2122" y="530.2189">set-hook / kill-session</text></g><!--link TmuxAttach to Sentinel--><g class="link" data-entity-1="ent0005" data-entity-2="ent0014" data-link-type="dependency" data-source-line="42" id="lnk20"><path d="M317.32,469.82 C331.99,479.04 347.98,487.56 364,493.34 C395.11,504.58 410.85,482.44 438,501.34 C465.8,520.7 478.4642,552.8173 485.1642,578.2973" fill="none" id="TmuxAttach-to-Sentinel" style="stroke:#181818;stroke-width:1;"/><polygon fill="#181818" points="486.69,584.1,488.2697,574.3787,485.4185,579.2644,480.5327,576.4131,486.69,584.1" style="stroke:#181818;stroke-width:1;"/><text fill="#000000" font-family="sans-serif" font-size="13" lengthAdjust="spacing" textLength="183.5298" x="466.93" y="522.4084">write / unlink (suspend path)</text></g><!--link TmuxAttach to Config--><g class="link" data-entity-1="ent0005" data-entity-2="ent0011" data-link-type="dependency" data-source-line="43" id="lnk21"><path d="M202.38,469.73 C166.35,506.47 123.2706,550.4058 94.6206,579.6258" fill="none" id="TmuxAttach-to-Config" style="stroke:#181818;stroke-width:1;"/><polygon fill="#181818" points="90.42,583.91,99.5771,580.2841,93.9205,580.3398,93.8648,574.6832,90.42,583.91" style="stroke:#181818;stroke-width:1;"/><text fill="#000000" font-family="sans-serif" font-size="13" lengthAdjust="spacing" textLength="61.8516" x="170.7" y="522.4084">TEMP_DIR</text></g><!--link App to SM--><g class="link" data-entity-1="ent0004" data-entity-2="ent0009" data-link-type="dependency" data-source-line="44" id="lnk22"><path d="M588.55,273.29 C607.02,279.47 626.5,285.38 645,289.9 C734.02,311.66 766.25,280.53 849,319.9 C883.95,336.53 911.5488,364.0929 930.9488,386.8629" fill="none" id="App-to-SM" style="stroke:#181818;stroke-width:1;"/><polygon fill="#181818" points="934.84,391.43,932.048,381.9852,931.5973,387.6241,925.9585,387.1734,934.84,391.43" style="stroke:#181818;stroke-width:1;"/><text fill="#000000" font-family="sans-serif" font-size="13" lengthAdjust="spacing" textLength="181.1367" x="876.82" y="333.4684">get session &#8594; tmux_pane_id</text></g><!--link TmuxAttach to GMN23--><g class="link" data-entity-1="ent0005" data-entity-2="ent0024" data-link-type="association" data-source-line="47" id="lnk25"><path d="M303.4,366.49 C325.5,347.82 352.83,328.96 381.5,319.27 C450.66,295.89 969.62,295.1 1038.5,319.27 C1078.15,333.18 1114.52,365.77 1137.37,389.75" fill="none" id="TmuxAttach-GMN23" style="stroke:#181818;stroke-width:1;stroke-dasharray:7,7;"/></g><?plantuml-src TLJ1Rjim3BtxAuZkacv8itLhcsJ0WBH9XXs21NLlws0eCkreaILFaji6HQ_xW7tYlcIKxBXEkY50O91yxr5ybEn6g98PLW3NHQaLAXUxhKGmo1rJkSJ8jYKhnZUvqPLAhxJK1bxD9_xNgMX9u342k3oidmtd7-PJdz4cHTD4JqV3jvUZwAd3KnAIvVXlblbyFfgT7xBCtu-ktftkiIZj_ayndLsye1XDXgTdH17jz8yoevL3bGwE0j4t2YgNb4pXIRczLMzWuXpZwslyMQ5rc49XSn-U4Sh0gd9Eg-_0B4myS4cum5AM3LohX0M6nEmeV3X9TU8RBZ5jyhkehMn9_NIZV8ryanIyJ9WKTrZBbQKNSaNrq9II8FGKtX_Vgdtc7aNsMNs4IsIgAXFhcCJ4ehL2AzlDC2axyQ1wGtBrGBnuAfZKkGqdlT8g4wQOeaI7qv08YFhJxitShrbdvFvW5iqTci0qPzOjhfOGnpCO3o_Epm8FHNnjqqzIC4LKDI2kOoTX5jwvHAG14o_sPEsQ6MnLkMyu3mGtiyKocNwv3g1ma7mF-3M60NZs1ke_eUxubjeeSjD7lmxzHv4-zHzB-c-dvUjZoWg54Z8XyLbkq2o6RTB9wnFtuEhEcv1lerqiwFS_UTzXVBYKlNfhHNeS-RolUtQAoW_tWOvpk10ji36CK3GXNXdZBplZd8OCl3QvhVKsZL_i9_6NHgymwlImQudAQKNxZOs-ZtlX-BhFfI0TsbDq_RNM6yfiX9IxmaEgTg9Zk3U27e41L4eAjO5USp1wOTpw-11NcqkedGVjKUA5dnCwsBNsvzTlw6vK58NNneXyxK1d-rTXMHaatxQAGrOfxloLeN1YAgNecQXVAw5-O4XH9gFdo95tR2MaSDl8T-pv3rNgQ_wvzY-SQLph20rIQvyaagq5FtZe-JjJAPPb98Iq3G1nPnpZ0DbPZocbLqPW9hSVWvN1HvAXqnkqLO5jMty1?></g></svg>