<?plantuml 1.2026.2?><svg xmlns="http://www.w3.org/2000/svg" xmlns:xlink="http://www.w3.org/1999/xlink" contentStyleType="text/css" data-diagram-type="SEQUENCE" height="2262px" preserveAspectRatio="none" style="width:1177px;height:2262px;background:#FAFAFA;" version="1.1" viewBox="0 0 1177 2262" width="1177px" zoomAndPan="magnify"><title>REQ-011 Attach Flows</title><defs/><g><rect fill="#FAFAFA" height="2262" style="stroke:none;stroke-width:1;" width="1177" x="0" y="0"/><text fill="#000000" font-family="sans-serif" font-size="14" font-weight="bold" lengthAdjust="spacing" textLength="163.5361" x="503.2019" y="28.5352">REQ-011 Attach Flows</text><rect fill="none" height="134.5527" style="stroke:#000000;stroke-width:1.5;" width="995.8418" x="10" y="512.7031"/><rect fill="none" height="61.9316" style="stroke:#000000;stroke-width:1.5;" width="388.8687" x="10" y="1838.9883"/><rect fill="none" height="46.6211" style="stroke:#000000;stroke-width:1.5;" width="418.2876" x="587.5542" y="2117.7832"/><g class="participant-lifeline" data-entity-uid="part1" data-qualified-name="User" id="part1-lifeline"><g><title>Platform User</title><rect fill="#000000" fill-opacity="0.00000" height="2062.4277" width="8" x="65.0469" y="118.9766"/><line style="stroke:#181818;stroke-width:0.5;stroke-dasharray:5,5;" x1="69" x2="69" y1="118.9766" y2="2181.4043"/></g></g><g class="participant-lifeline" data-entity-uid="part2" data-qualified-name="Pane" id="part2-lifeline"><g><title>AgentPane</title><rect fill="#000000" fill-opacity="0.00000" height="2062.4277" width="8" x="167.1294" y="118.9766"/><line style="stroke:#181818;stroke-width:0.5;stroke-dasharray:5,5;" x1="171.0938" x2="171.0938" y1="118.9766" y2="2181.4043"/></g></g><g class="participant-lifeline" data-entity-uid="part3" data-qualified-name="App" id="part3-lifeline"><g><title>App</title><rect fill="#000000" fill-opacity="0.00000" height="2062.4277" width="8" x="364.2275" y="118.9766"/><line style="stroke:#181818;stroke-width:0.5;stroke-dasharray:5,5;" x1="367.5864" x2="367.5864" y1="118.9766" y2="2181.4043"/></g></g><g class="participant-lifeline" data-entity-uid="part4" data-qualified-name="TA" id="part4-lifeline"><g><title>tmux_attach.py</title><rect fill="#000000" fill-opacity="0.00000" height="2062.4277" width="8" x="653.02" y="118.9766"/><line style="stroke:#181818;stroke-width:0.5;stroke-dasharray:5,5;" x1="656.5542" x2="656.5542" y1="118.9766" y2="2181.4043"/></g></g><g class="participant-lifeline" data-entity-uid="part5" data-qualified-name="Tmux" id="part5-lifeline"><g><title>tmux server</title><rect fill="#000000" fill-opacity="0.00000" height="2062.4277" width="8" x="944.1167" y="118.9766"/><line style="stroke:#181818;stroke-width:0.5;stroke-dasharray:5,5;" x1="947.3916" x2="947.3916" y1="118.9766" y2="2181.4043"/></g></g><g class="participant-lifeline" data-entity-uid="part6" data-qualified-name="MCP" id="part6-lifeline"><g><title>MCP.SSE</title><rect fill="#000000" fill-opacity="0.00000" height="2062.4277" width="8" x="1125.1934" y="118.9766"/><line style="stroke:#181818;stroke-width:0.5;stroke-dasharray:5,5;" x1="1128.4468" x2="1128.4468" y1="118.9766" y2="2181.4043"/></g></g><g class="participant participant-head" data-entity-uid="part1" data-qualified-name="User" id="part1-head"><text fill="#000000" font-family="sans-serif" font-size="14" lengthAdjust="spacing" textLength="92.0938" x="20" y="116.0234">Platform User</text><ellipse cx="69.0469" cy="50.9883" fill="#E2E2F0" rx="8" ry="8" style="stroke:#181818;stroke-width:0.5;"/><path d="M69.0469,58.9883 L69.0469,85.9883 M56.0469,66.9883 L82.0469,66.9883 M69.0469,85.9883 L56.0469,100.9883 M69.0469,85.9883 L82.0469,100.9883" fill="none" style="stroke:#181818;stroke-width:0.5;"/></g><g class="participant participant-tail" data-entity-uid="part1" data-qualified-name="User" id="part1-tail"><text fill="#000000" font-family="sans-serif" font-size="14" lengthAdjust="spacing" textLength="92.0938" x="20" y="2193.9395">Platform User</text><ellipse cx="69.0469" cy="2205.3926" fill="#E2E2F0" rx="8" ry="8" style="stroke:#181818;stroke-width:0.5;"/><path d="M69.0469,2213.3926 L69.0469,2240.3926 M56.0469,2221.3926 L82.0469,2221.3926 M69.0469,2240.3926 L56.0469,2255.3926 M69.0469,2240.3926 L82.0469,2255.3926" fill="none" style="stroke:#181818;stroke-width:0.5;"/></g><g class="participant participant-head" data-entity-uid="part2" data-qualified-name="Pane" id="part2-head"><rect fill="#E2E2F0" height="30.4883" rx="2.5" ry="2.5" style="stroke:#181818;stroke-width:0.5;" width="86.0713" x="128.0938" y="87.4883"/><text fill="#000000" font-family="sans-serif" font-size="14" lengthAdjust="spacing" textLength="72.0713" x="135.0938" y="108.0234">AgentPane</text></g><g class="participant participant-tail" data-entity-uid="part2" data-qualified-name="Pane" id="part2-tail"><rect fill="#E2E2F0" height="30.4883" rx="2.5" ry="2.5" style="stroke:#181818;stroke-width:0.5;" width="86.0713" x="128.0938" y="2180.4043"/><text fill="#000000" font-family="sans-serif" font-size="14" lengthAdjust="spacing" textLength="72.0713" x="135.0938" y="2200.9395">AgentPane</text></g><g class="participant participant-head" data-entity-uid="part3" data-qualified-name="App" id="part3-head"><rect fill="#E2E2F0" height="30.4883" rx="2.5" ry="2.5" style="stroke:#181818;stroke-width:0.5;" width="41.2822" x="347.5864" y="87.4883"/><text fill="#000000" font-family="sans-serif" font-size="14" lengthAdjust="spacing" textLength="27.2822" x="354.5864" y="108.0234">App</text></g><g class="participant participant-tail" data-entity-uid="part3" data-qualified-name="App" id="part3-tail"><rect fill="#E2E2F0" height="30.4883" rx="2.5" ry="2.5" style="stroke:#181818;stroke-width:0.5;" width="41.2822" x="347.5864" y="2180.4043"/><text fill="#000000" font-family="sans-serif" font-size="14" lengthAdjust="spacing" textLength="27.2822" x="354.5864" y="2200.9395">App</text></g><g class="participant participant-head" data-entity-uid="part4" data-qualified-name="TA" id="part4-head"><rect fill="#E2E2F0" height="30.4883" rx="2.5" ry="2.5" style="stroke:#181818;stroke-width:0.5;" width="118.9316" x="597.5542" y="87.4883"/><text fill="#000000" font-family="sans-serif" font-size="14" lengthAdjust="spacing" textLength="104.9316" x="604.5542" y="108.0234">tmux_attach.py</text></g><g class="participant participant-tail" data-entity-uid="part4" data-qualified-name="TA" id="part4-tail"><rect fill="#E2E2F0" height="30.4883" rx="2.5" ry="2.5" style="stroke:#181818;stroke-width:0.5;" width="118.9316" x="597.5542" y="2180.4043"/><text fill="#000000" font-family="sans-serif" font-size="14" lengthAdjust="spacing" textLength="104.9316" x="604.5542" y="2200.9395">tmux_attach.py</text></g><g class="participant participant-head" data-entity-uid="part5" data-qualified-name="Tmux" id="part5-head"><rect fill="#E2E2F0" height="30.4883" rx="2.5" ry="2.5" style="stroke:#181818;stroke-width:0.5;" width="95.4502" x="900.3916" y="87.4883"/><text fill="#000000" font-family="sans-serif" font-size="14" lengthAdjust="spacing" textLength="81.4502" x="907.3916" y="108.0234">tmux server</text></g><g class="participant participant-tail" data-entity-uid="part5" data-qualified-name="Tmux" id="part5-tail"><rect fill="#E2E2F0" height="30.4883" rx="2.5" ry="2.5" style="stroke:#181818;stroke-width:0.5;" width="95.4502" x="900.3916" y="2180.4043"/><text fill="#000000" font-family="sans-serif" font-size="14" lengthAdjust="spacing" textLength="81.4502" x="907.3916" y="2200.9395">tmux server</text></g><g class="participant participant-head" data-entity-uid="part6" data-qualified-name="MCP" id="part6-head"><rect fill="#E2E2F0" height="30.4883" rx="2.5" ry="2.5" style="stroke:#181818;stroke-width:0.5;" width="73.4932" x="1092.4468" y="87.4883"/><text fill="#000000" font-family="sans-serif" font-size="14" lengthAdjust="spacing" textLength="59.4932" x="1099.4468" y="108.0234">MCP/SSE</text></g><g class="participant participant-tail" data-entity-uid="part6" data-qualified-name="MCP" id="part6-tail"><rect fill="#E2E2F0" height="30.4883" rx="2.5" ry="2.5" style="stroke:#181818;stroke-width:0.5;" width="73.4932" x="1092.4468" y="2180.4043"/><text fill="#000000" font-family="sans-serif" font-size="14" lengthAdjust="spacing" textLength="59.4932" x="1099.4468" y="2200.9395">MCP/SSE</text></g><rect fill="#EEEEEE" height="3" style="stroke:#EEEEEE;stroke-width:1;" width="1170.9399" x="0" y="149.6318"/><line style="stroke:#000000;stroke-width:1;" x1="0" x2="1170.9399" y1="149.6318" y2="149.6318"/><line style="stroke:#000000;stroke-width:1;" x1="0" x2="1170.9399" y1="152.6318" y2="152.6318"/><rect fill="#EEEEEE" height="23.3105" style="stroke:#000000;stroke-width:2;" width="373.2139" x="398.863" y="138.9766"/><text fill="#000000" font-family="sans-serif" font-size="13" font-weight="bold" lengthAdjust="spacing" textLength="354.9292" x="404.863" y="155.5449">In-tmux Path (Grouped Session &#8212; asyncio stays live)</text><g class="message" data-entity-1="part1" data-entity-2="part2" id="msg1"><polygon fill="#181818" points="159.1294,189.5977,169.1294,193.5977,159.1294,197.5977,163.1294,193.5977" style="stroke:#181818;stroke-width:1;"/><line style="stroke:#181818;stroke-width:1;" x1="69.0469" x2="165.1294" y1="193.5977" y2="193.5977"/><text fill="#000000" font-family="sans-serif" font-size="13" lengthAdjust="spacing" textLength="65.0825" x="87.5469" y="188.8555">click Enter</text></g><g class="message" data-entity-1="part2" data-entity-2="part2" id="msg2"><line style="stroke:#181818;stroke-width:1;" x1="171.1294" x2="213.1294" y1="238.2188" y2="238.2188"/><line style="stroke:#181818;stroke-width:1;" x1="213.1294" x2="213.1294" y1="238.2188" y2="251.2188"/><line style="stroke:#181818;stroke-width:1;" x1="172.1294" x2="213.1294" y1="251.2188" y2="251.2188"/><polygon fill="#181818" points="182.1294,247.2188,172.1294,251.2188,182.1294,255.2188,178.1294,251.2188" style="stroke:#181818;stroke-width:1;"/><text fill="#000000" font-family="sans-serif" font-size="13" lengthAdjust="spacing" textLength="91.0698" x="224.1436" y="218.166">disable button</text><text fill="#000000" font-family="sans-serif" font-size="13" lengthAdjust="spacing" textLength="183.0981" x="178.1294" y="233.4766">start 5s force-reenable timer</text></g><g class="message" data-entity-1="part2" data-entity-2="part3" id="msg3"><polygon fill="#181818" points="356.2275,276.5293,366.2275,280.5293,356.2275,284.5293,360.2275,280.5293" style="stroke:#181818;stroke-width:1;"/><line style="stroke:#181818;stroke-width:1;" x1="171.1294" x2="362.2275" y1="280.5293" y2="280.5293"/><text fill="#000000" font-family="sans-serif" font-size="13" lengthAdjust="spacing" textLength="168.8223" x="185.2673" y="275.7871">AttachRequested(agent_id)</text></g><g class="message" data-entity-1="part3" data-entity-2="part5" id="msg4"><polygon fill="#181818" points="936.1167,305.8398,946.1167,309.8398,936.1167,313.8398,940.1167,309.8398" style="stroke:#181818;stroke-width:1;"/><line style="stroke:#181818;stroke-width:1;" x1="368.2275" x2="942.1167" y1="309.8398" y2="309.8398"/><text fill="#000000" font-family="sans-serif" font-size="13" lengthAdjust="spacing" textLength="125.2837" x="595.5303" y="305.0977">list-panes (validate)</text></g><g class="message" data-entity-1="part5" data-entity-2="part3" id="msg5"><polygon fill="#181818" points="379.2275,335.1504,369.2275,339.1504,379.2275,343.1504,375.2275,339.1504" style="stroke:#181818;stroke-width:1;"/><line style="stroke:#181818;stroke-width:1;stroke-dasharray:2,2;" x1="373.2275" x2="947.1167" y1="339.1504" y2="339.1504"/><text fill="#000000" font-family="sans-serif" font-size="13" lengthAdjust="spacing" textLength="85.9219" x="615.2112" y="334.4082">pane exists &#10003;</text></g><g class="message" data-entity-1="part3" data-entity-2="part3" id="msg6"><line style="stroke:#181818;stroke-width:1;" x1="368.2275" x2="410.2275" y1="383.7715" y2="383.7715"/><line style="stroke:#181818;stroke-width:1;" x1="410.2275" x2="410.2275" y1="383.7715" y2="396.7715"/><line style="stroke:#181818;stroke-width:1;" x1="369.2275" x2="410.2275" y1="396.7715" y2="396.7715"/><polygon fill="#181818" points="379.2275,392.7715,369.2275,396.7715,379.2275,400.7715,375.2275,396.7715" style="stroke:#181818;stroke-width:1;"/><text fill="#000000" font-family="sans-serif" font-size="13" lengthAdjust="spacing" textLength="65.2031" x="432.1057" y="363.7188">detect env</text><text fill="#000000" font-family="sans-serif" font-size="13" lengthAdjust="spacing" textLength="178.9595" x="375.2275" y="379.0293">($TMUX + display-message)</text></g><g class="message" data-entity-1="part3" data-entity-2="part3" id="msg7"><line style="stroke:#181818;stroke-width:1;" x1="368.2275" x2="410.2275" y1="426.082" y2="426.082"/><line style="stroke:#181818;stroke-width:1;" x1="410.2275" x2="410.2275" y1="426.082" y2="439.082"/><line style="stroke:#181818;stroke-width:1;" x1="369.2275" x2="410.2275" y1="439.082" y2="439.082"/><polygon fill="#181818" points="379.2275,435.082,369.2275,439.082,379.2275,443.082,375.2275,439.082" style="stroke:#181818;stroke-width:1;"/><text fill="#000000" font-family="sans-serif" font-size="13" lengthAdjust="spacing" textLength="103.2637" x="375.2275" y="421.3398">path = IN_TMUX</text></g><g class="message" data-entity-1="part3" data-entity-2="part4" id="msg8"><polygon fill="#181818" points="645.02,464.3926,655.02,468.3926,645.02,472.3926,649.02,468.3926" style="stroke:#181818;stroke-width:1;"/><line style="stroke:#181818;stroke-width:1;" x1="368.2275" x2="651.02" y1="468.3926" y2="468.3926"/><text fill="#000000" font-family="sans-serif" font-size="13" lengthAdjust="spacing" textLength="246.4351" x="389.4063" y="463.6504">grouped_attach(agent_id, pane_id, pid)</text></g><g class="message" data-entity-1="part4" data-entity-2="part5" id="msg9"><polygon fill="#181818" points="936.1167,493.7031,946.1167,497.7031,936.1167,501.7031,940.1167,497.7031" style="stroke:#181818;stroke-width:1;"/><line style="stroke:#181818;stroke-width:1;" x1="657.02" x2="942.1167" y1="497.7031" y2="497.7031"/><text fill="#000000" font-family="sans-serif" font-size="13" lengthAdjust="spacing" textLength="188.6587" x="708.239" y="492.9609">list-clients (concurrent check)</text></g><path d="M10,512.7031 L72.1387,512.7031 L72.1387,520.0137 L62.1387,530.0137 L10,530.0137 L10,512.7031" fill="#EEEEEE" style="stroke:#000000;stroke-width:1.5;"/><rect fill="none" height="134.5527" style="stroke:#000000;stroke-width:1.5;" width="995.8418" x="10" y="512.7031"/><text fill="#000000" font-family="sans-serif" font-size="13" font-weight="bold" lengthAdjust="spacing" textLength="17.1387" x="25" y="526.2715">alt</text><text fill="#000000" font-family="sans-serif" font-size="11" font-weight="bold" lengthAdjust="spacing" textLength="139.0469" x="87.1387" y="525.3379">[another client attached]</text><g class="message" data-entity-1="part5" data-entity-2="part4" id="msg10"><polygon fill="#181818" points="668.02,547.3242,658.02,551.3242,668.02,555.3242,664.02,551.3242" style="stroke:#181818;stroke-width:1;"/><line style="stroke:#181818;stroke-width:1;stroke-dasharray:2,2;" x1="662.02" x2="947.1167" y1="551.3242" y2="551.3242"/><text fill="#000000" font-family="sans-serif" font-size="13" lengthAdjust="spacing" textLength="57.4653" x="773.8357" y="546.582">client list</text></g><g class="message" data-entity-1="part4" data-entity-2="part3" id="msg11"><polygon fill="#181818" points="379.2275,576.6348,369.2275,580.6348,379.2275,584.6348,375.2275,580.6348" style="stroke:#181818;stroke-width:1;"/><line style="stroke:#181818;stroke-width:1;stroke-dasharray:2,2;" x1="373.2275" x2="656.02" y1="580.6348" y2="580.6348"/><text fill="#000000" font-family="sans-serif" font-size="13" lengthAdjust="spacing" textLength="125.125" x="450.0613" y="575.8926">need_confirm=True</text></g><g class="message" data-entity-1="part3" data-entity-2="part1" id="msg12"><polygon fill="#181818" points="80.0469,605.9453,70.0469,609.9453,80.0469,613.9453,76.0469,609.9453" style="stroke:#181818;stroke-width:1;"/><line style="stroke:#181818;stroke-width:1;" x1="74.0469" x2="367.2275" y1="609.9453" y2="609.9453"/><text fill="#000000" font-family="sans-serif" font-size="13" lengthAdjust="spacing" textLength="131.6504" x="152.812" y="605.2031">ConfirmDeleteDialog</text></g><g class="message" data-entity-1="part1" data-entity-2="part3" id="msg13"><polygon fill="#181818" points="356.2275,635.2559,366.2275,639.2559,356.2275,643.2559,360.2275,639.2559" style="stroke:#181818;stroke-width:1;"/><line style="stroke:#181818;stroke-width:1;" x1="69.0469" x2="362.2275" y1="639.2559" y2="639.2559"/><text fill="#000000" font-family="sans-serif" font-size="13" lengthAdjust="spacing" textLength="48.7056" x="194.2844" y="634.5137">confirm</text></g><g class="message" data-entity-1="part4" data-entity-2="part5" id="msg14"><polygon fill="#181818" points="936.1167,686.877,946.1167,690.877,936.1167,694.877,940.1167,690.877" style="stroke:#181818;stroke-width:1;"/><line style="stroke:#181818;stroke-width:1;" x1="657.02" x2="942.1167" y1="690.877" y2="690.877"/><text fill="#000000" font-family="sans-serif" font-size="13" lengthAdjust="spacing" textLength="267.0967" x="669.02" y="670.8242">new-session -d -s agmgr-enter-{id}-{pid}</text><text fill="#000000" font-family="sans-serif" font-size="13" lengthAdjust="spacing" textLength="113.8452" x="745.6458" y="686.1348">-t {agent_session}</text></g><g class="message" data-entity-1="part4" data-entity-2="part5" id="msg15"><polygon fill="#181818" points="936.1167,716.1875,946.1167,720.1875,936.1167,724.1875,940.1167,720.1875" style="stroke:#181818;stroke-width:1;"/><line style="stroke:#181818;stroke-width:1;" x1="657.02" x2="942.1167" y1="720.1875" y2="720.1875"/><text fill="#000000" font-family="sans-serif" font-size="13" lengthAdjust="spacing" textLength="91.9395" x="756.5986" y="715.4453">select-window</text></g><g class="message" data-entity-1="part4" data-entity-2="part5" id="msg16"><polygon fill="#181818" points="936.1167,760.8086,946.1167,764.8086,936.1167,768.8086,940.1167,764.8086" style="stroke:#181818;stroke-width:1;"/><line style="stroke:#181818;stroke-width:1;" x1="657.02" x2="942.1167" y1="764.8086" y2="764.8086"/><text fill="#000000" font-family="sans-serif" font-size="13" lengthAdjust="spacing" textLength="161.4907" x="721.823" y="744.7559">set-hook client-detached</text><text fill="#000000" font-family="sans-serif" font-size="13" lengthAdjust="spacing" textLength="112.855" x="746.1409" y="760.0664">(kill-if-last script)</text></g><g class="message" data-entity-1="part4" data-entity-2="part5" id="msg17"><polygon fill="#181818" points="936.1167,790.1191,946.1167,794.1191,936.1167,798.1191,940.1167,794.1191" style="stroke:#181818;stroke-width:1;"/><line style="stroke:#181818;stroke-width:1;" x1="657.02" x2="942.1167" y1="794.1191" y2="794.1191"/><text fill="#000000" font-family="sans-serif" font-size="13" lengthAdjust="spacing" textLength="247.5903" x="678.7732" y="789.377">switch-client -t agmgr-enter-{id}-{pid}</text></g><g class="message" data-entity-1="part5" data-entity-2="part1" id="msg18"><polygon fill="#181818" points="80.0469,819.4297,70.0469,823.4297,80.0469,827.4297,76.0469,823.4297" style="stroke:#181818;stroke-width:1;"/><line style="stroke:#181818;stroke-width:1;stroke-dasharray:2,2;" x1="74.0469" x2="947.1167" y1="823.4297" y2="823.4297"/><text fill="#000000" font-family="sans-serif" font-size="13" lengthAdjust="spacing" textLength="201.6143" x="407.7747" y="818.6875">terminal switches to agent pane</text></g><g class="message" data-entity-1="part3" data-entity-2="part1" id="msg19"><polygon fill="#181818" points="80.0469,848.7402,70.0469,852.7402,80.0469,856.7402,76.0469,852.7402" style="stroke:#181818;stroke-width:1;"/><line style="stroke:#181818;stroke-width:1;" x1="74.0469" x2="367.2275" y1="852.7402" y2="852.7402"/><text fill="#000000" font-family="sans-serif" font-size="13" lengthAdjust="spacing" textLength="237.1421" x="100.0662" y="847.998">toast "Attached &#8212; Ctrl+B D to return"</text></g><path d="M342,865.7402 L342,920.7402 L1155,920.7402 L1155,875.7402 L1145,865.7402 L342,865.7402" fill="#FEFFDD" style="stroke:#181818;stroke-width:0.5;"/><path d="M1145,865.7402 L1145,875.7402 L1155,875.7402 L1145,865.7402" fill="#FEFFDD" style="stroke:#181818;stroke-width:0.5;"/><text fill="#000000" font-family="sans-serif" font-size="13" lengthAdjust="spacing" textLength="182.7998" x="640.9194" y="883.3086">asyncio event loop continues</text><text fill="#000000" font-family="sans-serif" font-size="13" lengthAdjust="spacing" textLength="206.5146" x="640.9194" y="898.6191">MCP/SSE connections unaffected</text><text fill="#000000" font-family="sans-serif" font-size="13" lengthAdjust="spacing" textLength="199.5259" x="640.9194" y="913.9297">TUI keeps polling capture-pane</text><g class="message" data-entity-1="part1" data-entity-2="part5" id="msg20"><polygon fill="#181818" points="936.1167,943.9824,946.1167,947.9824,936.1167,951.9824,940.1167,947.9824" style="stroke:#181818;stroke-width:1;"/><line style="stroke:#181818;stroke-width:1;" x1="69.0469" x2="942.1167" y1="947.9824" y2="947.9824"/><text fill="#000000" font-family="sans-serif" font-size="13" lengthAdjust="spacing" textLength="109.3574" x="453.9031" y="943.2402">Ctrl+B D (detach)</text></g><g class="message" data-entity-1="part5" data-entity-2="part5" id="msg21"><line style="stroke:#181818;stroke-width:1;" x1="948.1167" x2="990.1167" y1="992.6035" y2="992.6035"/><line style="stroke:#181818;stroke-width:1;" x1="990.1167" x2="990.1167" y1="992.6035" y2="1005.6035"/><line style="stroke:#181818;stroke-width:1;" x1="949.1167" x2="990.1167" y1="1005.6035" y2="1005.6035"/><polygon fill="#181818" points="959.1167,1001.6035,949.1167,1005.6035,959.1167,1009.6035,955.1167,1005.6035" style="stroke:#181818;stroke-width:1;"/><text fill="#000000" font-family="sans-serif" font-size="13" lengthAdjust="spacing" textLength="167.0767" x="955.1167" y="972.5508">client-detached hook fires</text><text fill="#000000" font-family="sans-serif" font-size="13" lengthAdjust="spacing" textLength="138.3345" x="969.4878" y="987.8613">&#8594; kill-session (async)</text></g><g class="message" data-entity-1="part3" data-entity-2="part5" id="msg22"><polygon fill="#181818" points="936.1167,1030.9141,946.1167,1034.9141,936.1167,1038.9141,940.1167,1034.9141" style="stroke:#181818;stroke-width:1;"/><line style="stroke:#181818;stroke-width:1;" x1="368.2275" x2="942.1167" y1="1034.9141" y2="1034.9141"/><text fill="#000000" font-family="sans-serif" font-size="13" lengthAdjust="spacing" textLength="149.6016" x="583.3713" y="1030.1719">force capture-pane poll</text></g><g class="message" data-entity-1="part3" data-entity-2="part2" id="msg23"><polygon fill="#181818" points="182.1294,1060.2246,172.1294,1064.2246,182.1294,1068.2246,178.1294,1064.2246" style="stroke:#181818;stroke-width:1;"/><line style="stroke:#181818;stroke-width:1;" x1="176.1294" x2="367.2275" y1="1064.2246" y2="1064.2246"/><text fill="#000000" font-family="sans-serif" font-size="13" lengthAdjust="spacing" textLength="147.5259" x="195.9155" y="1059.4824">refresh output + status</text></g><g class="message" data-entity-1="part2" data-entity-2="part2" id="msg24"><line style="stroke:#181818;stroke-width:1;" x1="171.1294" x2="213.1294" y1="1093.5352" y2="1093.5352"/><line style="stroke:#181818;stroke-width:1;" x1="213.1294" x2="213.1294" y1="1093.5352" y2="1106.5352"/><line style="stroke:#181818;stroke-width:1;" x1="172.1294" x2="213.1294" y1="1106.5352" y2="1106.5352"/><polygon fill="#181818" points="182.1294,1102.5352,172.1294,1106.5352,182.1294,1110.5352,178.1294,1106.5352" style="stroke:#181818;stroke-width:1;"/><text fill="#000000" font-family="sans-serif" font-size="13" lengthAdjust="spacing" textLength="144.5488" x="178.1294" y="1088.793">re-enable Enter button</text></g><rect fill="#EEEEEE" height="3" style="stroke:#EEEEEE;stroke-width:1;" width="1170.9399" x="0" y="1135.1904"/><line style="stroke:#000000;stroke-width:1;" x1="0" x2="1170.9399" y1="1135.1904" y2="1135.1904"/><line style="stroke:#000000;stroke-width:1;" x1="0" x2="1170.9399" y1="1138.1904" y2="1138.1904"/><rect fill="#EEEEEE" height="23.3105" style="stroke:#000000;stroke-width:2;" width="273.6255" x="448.6572" y="1124.5352"/><text fill="#000000" font-family="sans-serif" font-size="13" font-weight="bold" lengthAdjust="spacing" textLength="255.3408" x="454.6572" y="1141.1035">Out-of-tmux Path (Suspend + Attach)</text><g class="message" data-entity-1="part1" data-entity-2="part2" id="msg25"><polygon fill="#181818" points="159.1294,1175.1563,169.1294,1179.1563,159.1294,1183.1563,163.1294,1179.1563" style="stroke:#181818;stroke-width:1;"/><line style="stroke:#181818;stroke-width:1;" x1="69.0469" x2="165.1294" y1="1179.1563" y2="1179.1563"/><text fill="#000000" font-family="sans-serif" font-size="13" lengthAdjust="spacing" textLength="65.0825" x="87.5469" y="1174.4141">click Enter</text></g><g class="message" data-entity-1="part2" data-entity-2="part3" id="msg26"><polygon fill="#181818" points="356.2275,1204.4668,366.2275,1208.4668,356.2275,1212.4668,360.2275,1208.4668" style="stroke:#181818;stroke-width:1;"/><line style="stroke:#181818;stroke-width:1;" x1="171.1294" x2="362.2275" y1="1208.4668" y2="1208.4668"/><text fill="#000000" font-family="sans-serif" font-size="13" lengthAdjust="spacing" textLength="168.8223" x="185.2673" y="1203.7246">AttachRequested(agent_id)</text></g><g class="message" data-entity-1="part3" data-entity-2="part3" id="msg27"><line style="stroke:#181818;stroke-width:1;" x1="368.2275" x2="410.2275" y1="1253.0879" y2="1253.0879"/><line style="stroke:#181818;stroke-width:1;" x1="410.2275" x2="410.2275" y1="1253.0879" y2="1266.0879"/><line style="stroke:#181818;stroke-width:1;" x1="369.2275" x2="410.2275" y1="1266.0879" y2="1266.0879"/><polygon fill="#181818" points="379.2275,1262.0879,369.2275,1266.0879,379.2275,1270.0879,375.2275,1266.0879" style="stroke:#181818;stroke-width:1;"/><text fill="#000000" font-family="sans-serif" font-size="13" lengthAdjust="spacing" textLength="164.4868" x="375.2275" y="1233.0352">detect env: $TMUX absent</text><text fill="#000000" font-family="sans-serif" font-size="13" lengthAdjust="spacing" textLength="140.8101" x="387.0659" y="1248.3457">path = OUT_OF_TMUX</text></g><g class="message" data-entity-1="part3" data-entity-2="part4" id="msg28"><polygon fill="#181818" points="645.02,1291.3984,655.02,1295.3984,645.02,1299.3984,649.02,1295.3984" style="stroke:#181818;stroke-width:1;"/><line style="stroke:#181818;stroke-width:1;" x1="368.2275" x2="651.02" y1="1295.3984" y2="1295.3984"/><text fill="#000000" font-family="sans-serif" font-size="13" lengthAdjust="spacing" textLength="264.7925" x="380.2275" y="1290.6563">suspend_attach(pane_id, pid, suspend_fn)</text></g><g class="message" data-entity-1="part4" data-entity-2="part4" id="msg29"><line style="stroke:#181818;stroke-width:1;" x1="657.02" x2="699.02" y1="1340.0195" y2="1340.0195"/><line style="stroke:#181818;stroke-width:1;" x1="699.02" x2="699.02" y1="1340.0195" y2="1353.0195"/><line style="stroke:#181818;stroke-width:1;" x1="658.02" x2="699.02" y1="1353.0195" y2="1353.0195"/><polygon fill="#181818" points="668.02,1349.0195,658.02,1353.0195,668.02,1357.0195,664.02,1353.0195" style="stroke:#181818;stroke-width:1;"/><text fill="#000000" font-family="sans-serif" font-size="13" lengthAdjust="spacing" textLength="100.9087" x="692.7622" y="1319.9668">asyncio.sleep(0)</text><text fill="#000000" font-family="sans-serif" font-size="13" lengthAdjust="spacing" textLength="158.3931" x="664.02" y="1335.2773">(drain pending callbacks)</text></g><g class="message" data-entity-1="part4" data-entity-2="part4" id="msg30"><line style="stroke:#181818;stroke-width:1;" x1="657.02" x2="699.02" y1="1382.3301" y2="1382.3301"/><line style="stroke:#181818;stroke-width:1;" x1="699.02" x2="699.02" y1="1382.3301" y2="1395.3301"/><line style="stroke:#181818;stroke-width:1;" x1="658.02" x2="699.02" y1="1395.3301" y2="1395.3301"/><polygon fill="#181818" points="668.02,1391.3301,658.02,1395.3301,668.02,1399.3301,664.02,1395.3301" style="stroke:#181818;stroke-width:1;"/><text fill="#000000" font-family="sans-serif" font-size="13" lengthAdjust="spacing" textLength="108.5894" x="664.02" y="1377.5879">write sentinel file</text></g><g class="message" data-entity-1="part4" data-entity-2="part3" id="msg31"><polygon fill="#181818" points="379.2275,1420.6406,369.2275,1424.6406,379.2275,1428.6406,375.2275,1424.6406" style="stroke:#181818;stroke-width:1;"/><line style="stroke:#181818;stroke-width:1;" x1="373.2275" x2="656.02" y1="1424.6406" y2="1424.6406"/><text fill="#000000" font-family="sans-serif" font-size="13" lengthAdjust="spacing" textLength="106.2661" x="459.4907" y="1419.8984">call suspend_fn()</text></g><g class="message" data-entity-1="part3" data-entity-2="part3" id="msg32"><line style="stroke:#181818;stroke-width:1;" x1="368.2275" x2="410.2275" y1="1469.2617" y2="1469.2617"/><line style="stroke:#181818;stroke-width:1;" x1="410.2275" x2="410.2275" y1="1469.2617" y2="1482.2617"/><line style="stroke:#181818;stroke-width:1;" x1="369.2275" x2="410.2275" y1="1482.2617" y2="1482.2617"/><polygon fill="#181818" points="379.2275,1478.2617,369.2275,1482.2617,379.2275,1486.2617,375.2275,1482.2617" style="stroke:#181818;stroke-width:1;"/><text fill="#000000" font-family="sans-serif" font-size="13" lengthAdjust="spacing" textLength="89.1084" x="413.1135" y="1449.209">app.suspend()</text><text fill="#000000" font-family="sans-serif" font-size="13" lengthAdjust="spacing" textLength="164.8804" x="375.2275" y="1464.5195">(releases terminal control)</text></g><g class="message" data-entity-1="part3" data-entity-2="part1" id="msg33"><polygon fill="#181818" points="80.0469,1507.5723,70.0469,1511.5723,80.0469,1515.5723,76.0469,1511.5723" style="stroke:#181818;stroke-width:1;"/><line style="stroke:#181818;stroke-width:1;stroke-dasharray:2,2;" x1="74.0469" x2="367.2275" y1="1511.5723" y2="1511.5723"/><text fill="#000000" font-family="sans-serif" font-size="13" lengthAdjust="spacing" textLength="111.4014" x="162.9365" y="1506.8301">terminal available</text></g><g class="message" data-entity-1="part4" data-entity-2="part5" id="msg34"><polygon fill="#181818" points="936.1167,1536.8828,946.1167,1540.8828,936.1167,1544.8828,940.1167,1540.8828" style="stroke:#181818;stroke-width:1;"/><line style="stroke:#181818;stroke-width:1;" x1="657.02" x2="942.1167" y1="1540.8828" y2="1540.8828"/><text fill="#000000" font-family="sans-serif" font-size="13" lengthAdjust="spacing" textLength="265.4907" x="669.823" y="1536.1406">subprocess.run(attach-session) [blocking]</text></g><g class="message" data-entity-1="part5" data-entity-2="part1" id="msg35"><polygon fill="#181818" points="80.0469,1566.1934,70.0469,1570.1934,80.0469,1574.1934,76.0469,1570.1934" style="stroke:#181818;stroke-width:1;"/><line style="stroke:#181818;stroke-width:1;stroke-dasharray:2,2;" x1="74.0469" x2="947.1167" y1="1570.1934" y2="1570.1934"/><text fill="#000000" font-family="sans-serif" font-size="13" lengthAdjust="spacing" textLength="201.9888" x="407.5874" y="1565.4512">terminal attached to agent pane</text></g><path d="M342,1583.1934 L342,1638.1934 L1155,1638.1934 L1155,1593.1934 L1145,1583.1934 L342,1583.1934" fill="#FEFFDD" style="stroke:#181818;stroke-width:0.5;"/><path d="M1145,1583.1934 L1145,1593.1934 L1155,1593.1934 L1145,1583.1934" fill="#FEFFDD" style="stroke:#181818;stroke-width:0.5;"/><text fill="#000000" font-family="sans-serif" font-size="13" lengthAdjust="spacing" textLength="194.8286" x="632.8262" y="1600.7617">asyncio event loop SUSPENDED</text><text fill="#000000" font-family="sans-serif" font-size="13" lengthAdjust="spacing" textLength="222.7012" x="632.8262" y="1616.0723">MCP/SSE connections may time out</text><text fill="#000000" font-family="sans-serif" font-size="13" lengthAdjust="spacing" textLength="151.1187" x="632.8262" y="1631.3828">Textual workers paused</text><g class="message" data-entity-1="part1" data-entity-2="part5" id="msg36"><polygon fill="#181818" points="936.1167,1661.4355,946.1167,1665.4355,936.1167,1669.4355,940.1167,1665.4355" style="stroke:#181818;stroke-width:1;"/><line style="stroke:#181818;stroke-width:1;" x1="69.0469" x2="942.1167" y1="1665.4355" y2="1665.4355"/><text fill="#000000" font-family="sans-serif" font-size="13" lengthAdjust="spacing" textLength="54.5962" x="481.2837" y="1660.6934">Ctrl+B D</text></g><g class="message" data-entity-1="part5" data-entity-2="part4" id="msg37"><polygon fill="#181818" points="668.02,1690.7461,658.02,1694.7461,668.02,1698.7461,664.02,1694.7461" style="stroke:#181818;stroke-width:1;"/><line style="stroke:#181818;stroke-width:1;stroke-dasharray:2,2;" x1="662.02" x2="947.1167" y1="1694.7461" y2="1694.7461"/><text fill="#000000" font-family="sans-serif" font-size="13" lengthAdjust="spacing" textLength="146.707" x="729.2148" y="1690.0039">subprocess.run returns</text></g><g class="message" data-entity-1="part4" data-entity-2="part4" id="msg38"><line style="stroke:#181818;stroke-width:1;" x1="657.02" x2="699.02" y1="1724.0566" y2="1724.0566"/><line style="stroke:#181818;stroke-width:1;" x1="699.02" x2="699.02" y1="1724.0566" y2="1737.0566"/><line style="stroke:#181818;stroke-width:1;" x1="658.02" x2="699.02" y1="1737.0566" y2="1737.0566"/><polygon fill="#181818" points="668.02,1733.0566,658.02,1737.0566,668.02,1741.0566,664.02,1737.0566" style="stroke:#181818;stroke-width:1;"/><text fill="#000000" font-family="sans-serif" font-size="13" lengthAdjust="spacing" textLength="101.5117" x="664.02" y="1719.3145">sentinel.unlink()</text></g><g class="message" data-entity-1="part3" data-entity-2="part3" id="msg39"><line style="stroke:#181818;stroke-width:1;" x1="368.2275" x2="410.2275" y1="1781.6777" y2="1781.6777"/><line style="stroke:#181818;stroke-width:1;" x1="410.2275" x2="410.2275" y1="1781.6777" y2="1794.6777"/><line style="stroke:#181818;stroke-width:1;" x1="369.2275" x2="410.2275" y1="1794.6777" y2="1794.6777"/><polygon fill="#181818" points="379.2275,1790.6777,369.2275,1794.6777,379.2275,1798.6777,375.2275,1794.6777" style="stroke:#181818;stroke-width:1;"/><text fill="#000000" font-family="sans-serif" font-size="13" lengthAdjust="spacing" textLength="82.748" x="375.2275" y="1761.625">app.resume()</text><text fill="#000000" font-family="sans-serif" font-size="13" lengthAdjust="spacing" textLength="61.3818" x="385.9106" y="1776.9355">tput reset</text></g><g class="message" data-entity-1="part3" data-entity-2="part6" id="msg40"><polygon fill="#181818" points="1117.1934,1819.9883,1127.1934,1823.9883,1117.1934,1827.9883,1121.1934,1823.9883" style="stroke:#181818;stroke-width:1;"/><line style="stroke:#181818;stroke-width:1;" x1="368.2275" x2="1123.1934" y1="1823.9883" y2="1823.9883"/><text fill="#000000" font-family="sans-serif" font-size="13" lengthAdjust="spacing" textLength="160.8496" x="668.2856" y="1819.2461">_check_mcp_alive() probe</text></g><path d="M10,1838.9883 L72.1387,1838.9883 L72.1387,1846.2988 L62.1387,1856.2988 L10,1856.2988 L10,1838.9883" fill="#EEEEEE" style="stroke:#000000;stroke-width:1.5;"/><rect fill="none" height="61.9316" style="stroke:#000000;stroke-width:1.5;" width="388.8687" x="10" y="1838.9883"/><text fill="#000000" font-family="sans-serif" font-size="13" font-weight="bold" lengthAdjust="spacing" textLength="17.1387" x="25" y="1852.5566">alt</text><text fill="#000000" font-family="sans-serif" font-size="11" font-weight="bold" lengthAdjust="spacing" textLength="151.0137" x="87.1387" y="1851.623">[MCP task done/cancelled]</text><g class="message" data-entity-1="part3" data-entity-2="part1" id="msg41"><polygon fill="#181818" points="80.0469,1888.9199,70.0469,1892.9199,80.0469,1896.9199,76.0469,1892.9199" style="stroke:#181818;stroke-width:1;"/><line style="stroke:#181818;stroke-width:1;" x1="74.0469" x2="367.2275" y1="1892.9199" y2="1892.9199"/><text fill="#000000" font-family="sans-serif" font-size="13" lengthAdjust="spacing" textLength="172.7896" x="132.2424" y="1872.8672">toast "MCP connection lost,</text><text fill="#000000" font-family="sans-serif" font-size="13" lengthAdjust="spacing" textLength="90.6128" x="173.3308" y="1888.1777">please restart"</text></g><g class="message" data-entity-1="part3" data-entity-2="part5" id="msg42"><polygon fill="#181818" points="936.1167,1925.2305,946.1167,1929.2305,936.1167,1933.2305,940.1167,1929.2305" style="stroke:#181818;stroke-width:1;"/><line style="stroke:#181818;stroke-width:1;" x1="368.2275" x2="942.1167" y1="1929.2305" y2="1929.2305"/><text fill="#000000" font-family="sans-serif" font-size="13" lengthAdjust="spacing" textLength="149.6016" x="583.3713" y="1924.4883">force capture-pane poll</text></g><g class="message" data-entity-1="part3" data-entity-2="part2" id="msg43"><polygon fill="#181818" points="182.1294,1954.541,172.1294,1958.541,182.1294,1962.541,178.1294,1958.541" style="stroke:#181818;stroke-width:1;"/><line style="stroke:#181818;stroke-width:1;" x1="176.1294" x2="367.2275" y1="1958.541" y2="1958.541"/><text fill="#000000" font-family="sans-serif" font-size="13" lengthAdjust="spacing" textLength="147.5259" x="195.9155" y="1953.7988">refresh output + status</text></g><g class="message" data-entity-1="part2" data-entity-2="part2" id="msg44"><line style="stroke:#181818;stroke-width:1;" x1="171.1294" x2="213.1294" y1="1987.8516" y2="1987.8516"/><line style="stroke:#181818;stroke-width:1;" x1="213.1294" x2="213.1294" y1="1987.8516" y2="2000.8516"/><line style="stroke:#181818;stroke-width:1;" x1="172.1294" x2="213.1294" y1="2000.8516" y2="2000.8516"/><polygon fill="#181818" points="182.1294,1996.8516,172.1294,2000.8516,182.1294,2004.8516,178.1294,2000.8516" style="stroke:#181818;stroke-width:1;"/><text fill="#000000" font-family="sans-serif" font-size="13" lengthAdjust="spacing" textLength="144.5488" x="178.1294" y="1983.1094">re-enable Enter button</text></g><rect fill="#EEEEEE" height="3" style="stroke:#EEEEEE;stroke-width:1;" width="1170.9399" x="0" y="2029.5068"/><line style="stroke:#000000;stroke-width:1;" x1="0" x2="1170.9399" y1="2029.5068" y2="2029.5068"/><line style="stroke:#000000;stroke-width:1;" x1="0" x2="1170.9399" y1="2032.5068" y2="2032.5068"/><rect fill="#EEEEEE" height="23.3105" style="stroke:#000000;stroke-width:2;" width="125.6743" x="522.6328" y="2018.8516"/><text fill="#000000" font-family="sans-serif" font-size="13" font-weight="bold" lengthAdjust="spacing" textLength="107.3896" x="528.6328" y="2035.4199">Startup Cleanup</text><g class="message" data-entity-1="part3" data-entity-2="part4" id="msg45"><polygon fill="#181818" points="645.02,2069.4727,655.02,2073.4727,645.02,2077.4727,649.02,2073.4727" style="stroke:#181818;stroke-width:1;"/><line style="stroke:#181818;stroke-width:1;" x1="368.2275" x2="651.02" y1="2073.4727" y2="2073.4727"/><text fill="#000000" font-family="sans-serif" font-size="13" lengthAdjust="spacing" textLength="226.002" x="399.6228" y="2068.7305">cleanup_stale_sessions(current_pid)</text></g><g class="message" data-entity-1="part4" data-entity-2="part5" id="msg46"><polygon fill="#181818" points="936.1167,2098.7832,946.1167,2102.7832,936.1167,2106.7832,940.1167,2102.7832" style="stroke:#181818;stroke-width:1;"/><line style="stroke:#181818;stroke-width:1;" x1="657.02" x2="942.1167" y1="2102.7832" y2="2102.7832"/><text fill="#000000" font-family="sans-serif" font-size="13" lengthAdjust="spacing" textLength="221.3809" x="691.8779" y="2098.041">list-sessions (filter agmgr-enter-*)</text></g><path d="M587.5542,2117.7832 L662.001,2117.7832 L662.001,2125.0938 L652.001,2135.0938 L587.5542,2135.0938 L587.5542,2117.7832" fill="#EEEEEE" style="stroke:#000000;stroke-width:1.5;"/><rect fill="none" height="46.6211" style="stroke:#000000;stroke-width:1.5;" width="418.2876" x="587.5542" y="2117.7832"/><text fill="#000000" font-family="sans-serif" font-size="13" font-weight="bold" lengthAdjust="spacing" textLength="29.4468" x="602.5542" y="2131.3516">loop</text><text fill="#000000" font-family="sans-serif" font-size="11" font-weight="bold" lengthAdjust="spacing" textLength="164.3608" x="677.001" y="2130.418">[stale session (pid not alive)]</text><g class="message" data-entity-1="part4" data-entity-2="part5" id="msg47"><polygon fill="#181818" points="936.1167,2152.4043,946.1167,2156.4043,936.1167,2160.4043,940.1167,2156.4043" style="stroke:#181818;stroke-width:1;"/><line style="stroke:#181818;stroke-width:1;" x1="657.02" x2="942.1167" y1="2156.4043" y2="2156.4043"/><text fill="#000000" font-family="sans-serif" font-size="13" lengthAdjust="spacing" textLength="73.3281" x="765.9043" y="2151.6621">kill-session</text></g><?plantuml-src nLRDRkCs4BxhAGPk3t8JPNSFlGH80JS_nHwooQuJe41J63GrjWdJf4fITemWG4zzWBR7FbsUf3CKfTZQ1CsjoC6IvkDmvflvPkANobJ2YHLu_Ar68_4IlHTp76arDo3H17IPxr1J8PTpPsjJdbfj7NnpCUA_B0igQ8Glvv-Bzny-m2W48HTmeUt6PvcGWQ23Qot2pBeLt7fq0n0-FcJaE2YfAc4234Ppkl5Q68nsVkZPgofQw7VV45Rr_KJ4Qu-gRSJSZBw6K9fkdMw_eVTznENfzRln-3nQwJdBJaxWeodYmMiH5f3_HBbNMCAOM5BMmDFlVnDuQwIou8FOUj1gZKCuESaopWwA7s8MS0nIAxc4yqXe_FHiAfKNKw9lMeTWpPqXJox0znw8Bec5GpJH7jHgvp1nG6SRghzmzNp0CXVCu4ILmupj1ECq2QUL3mMbYHxojT2g5067MJGMdJEs0zuJrCFJFt-rBXfZYG5b03JhEvD_UtDv-pCSSEYL5jjYrRJDSFz8nQGHXvyc3EyY6f5ftZ2PQjQ5VHXZQ1uu2SBsSY0U2KfPI6jaxHozW5oWN0upeGC8OyE2Y6zWqBZ7CWFeSett9pkxPDjeXmM351TvdoctEhbnDH8WXHvhUWodZV4CDN5ofeIsSyAq1M-y90SPcd8_2uERmgV-AKeeF8ZvQkwAgBNYGPMFnGFb_dX7dGSF3J49_xZloTFzCXGRPKgxwPj2iR1scV8ig7YH1ohTKcbTg5cXXG_WfLDLwF7iDoh8HM8QA8gN0tpkdaGBcLVA29qSKAi52p61MDLidyHWEO31A5KeQkaqE7tm8vpnGOUXTcQGPLHH14koPMOFepAXKnskOncjhPZne0pfWCn9olpD44V4dOVQYDcCNffkkFq8IyJAGsMrLcOEKbHq8KQHSDM0xtsMSUAcYp1lA6qrr05wX4Ei0dK2-ZlpzCUV4Eblwv_7DFfQZRBVYoS6sQBIr70u8wSBi7Mewa1QfB4HQjyVBkGXZOyuUzAGYRFjgWw5dUtEjt7jAqxz8CsLDq-oDmwZ_YGvXcQGYAadv9r90-FgzcPoTV7rqF1DUEtGs1qLXvrnPhfsvZEfKOwyfchdxuUaWD89PO31JTsrvhtczuvjdAAkuwYKGKq5r9ZCITvqQkVAl9UYgAgZPCtvIaTI5PuLqMg4kzLPdSwz82An5afpuNhYhAULiv8QwCZL9c-eQ1jg2BzCjPMqh-U_lYxFTYZsvFbceOrlnzVddyxEpruHsafiuwxYrcIfuNsewTgDTKjq93XHUzBWVqeisv_O-ucdyU1tQzPMwwWsfEZbIpKXnTGhv994qT0hXXP5gH1g4fV9P2MhYU1bdW-1hfrYt2uC2S8leRG6tqb1_p1f7UV9YxEDuS_447a-75AJnrRWktdF3-A6-7y6m9W3g2iufOWC_RBOT_Kcc-yJSgonNK8-Jsjtyig6Rd6GashunjtryTqmYpqKNK8t1yaLDmD4oeTf8tTkTsTcfEjV?></g></svg>